<svg width="30" height="30" viewBox="0 0 30 30" fill="none" xmlns="http://www.w3.org/2000/svg">
<g clip-path="url(#clip0_264_813)">
<path d="M14.5 3.5166C8.49609 3.5166 3.625 7.54785 3.625 12.5166C3.625 17.4854 8.49609 21.5166 14.5 21.5166C15.5025 21.5166 16.3125 22.1869 16.3125 23.0166C16.3125 23.8463 15.5025 24.5166 14.5 24.5166C6.49102 24.5166 0 19.1447 0 12.5166C0 5.88848 6.49102 0.516602 14.5 0.516602C22.509 0.516602 29 5.88848 29 12.5166V14.0166C29 16.501 26.5645 18.5166 23.5625 18.5166C21.9029 18.5166 20.4133 17.8979 19.4164 16.9275C18.125 17.9119 16.3975 18.5166 14.5 18.5166C10.4955 18.5166 7.25 15.8307 7.25 12.5166C7.25 9.20254 10.4955 6.5166 14.5 6.5166C16.0803 6.5166 17.5416 6.93379 18.7311 7.64629C19.0539 7.41191 19.473 7.2666 19.9375 7.2666C20.94 7.2666 21.75 7.93691 21.75 8.7666V12.5166V14.0166C21.75 14.8463 22.56 15.5166 23.5625 15.5166C24.565 15.5166 25.375 14.8463 25.375 14.0166V12.5166C25.375 7.54785 20.5039 3.5166 14.5 3.5166ZM18.125 12.5166C18.125 11.721 17.7431 10.9579 17.0633 10.3953C16.3834 9.83267 15.4614 9.5166 14.5 9.5166C13.5386 9.5166 12.6166 9.83267 11.9367 10.3953C11.2569 10.9579 10.875 11.721 10.875 12.5166C10.875 13.3123 11.2569 14.0753 11.9367 14.6379C12.6166 15.2005 13.5386 15.5166 14.5 15.5166C15.4614 15.5166 16.3834 15.2005 17.0633 14.6379C17.7431 14.0753 18.125 13.3123 18.125 12.5166Z" fill="#1C418C"/>
</g>
<defs>
<clipPath id="clip0_264_813">
<rect width="29" height="24" fill="white" transform="translate(0 0.516602)"/>
</clipPath>
</defs>
</svg>