<svg width="45" height="45" viewBox="0 0 45 45" fill="none" xmlns="http://www.w3.org/2000/svg">
<path d="M47 22.5C47 34.9264 36.4787 45 23.5 45C10.5213 45 0 34.9264 0 22.5C0 10.0736 10.5213 0 23.5 0C36.4787 0 47 10.0736 47 22.5Z" fill="#1C418C"/>
<path d="M22.125 6C23.1621 6 24 6.94961 24 8.125V8.92188L29.625 8.125C30.6621 8.125 31.5 9.07461 31.5 10.25C31.5 11.4254 30.6621 12.375 29.625 12.375L22.1836 11.3191L22.125 11.3125L22.0664 11.3191L14.625 12.375C13.5879 12.375 12.75 11.4254 12.75 10.25C12.75 9.07461 13.5879 8.125 14.625 8.125L20.25 8.92188V8.125C20.25 6.94961 21.0879 6 22.125 6ZM9 20.875C9 19.6996 9.83789 18.75 10.875 18.75H16.5L17.8242 17.2492C18.1758 16.8508 18.6504 16.625 19.1484 16.625H20.25V13.7164L22.125 13.4508L24 13.7164V16.625H25.0957C25.5938 16.625 26.0684 16.8508 26.4199 17.2492L27.75 18.75H29.625C34.8047 18.75 39 23.5047 39 29.375C39 30.5504 38.1621 31.5 37.125 31.5H33.375C32.3379 31.5 31.5 30.5504 31.5 29.375C31.5 28.1996 30.6621 27.25 29.625 27.25H27.5098C26.3262 29.1758 24.3516 30.4375 22.125 30.4375C19.8984 30.4375 17.9238 29.1758 16.7402 27.25H10.875C9.83789 27.25 9 26.3004 9 25.125V20.875ZM34.5938 34.1164C34.7051 33.8176 34.9629 33.625 35.25 33.625C35.5371 33.625 35.7891 33.8176 35.9062 34.1164L36.9727 36.932C37.0781 37.2043 37.1309 37.5031 37.1309 37.802V37.875C37.1309 39.0504 36.293 40 35.2559 40C34.2188 40 33.3809 39.0504 33.3809 37.875V37.7953C33.3809 37.4965 33.4336 37.2043 33.5391 36.9254L34.6055 34.1098L34.5938 34.1164Z" fill="#D9D9D9"/>
</svg>
