<svg width="24" height="31" viewBox="0 0 24 31" fill="none" xmlns="http://www.w3.org/2000/svg">
<path d="M12 0C11.0517 0 10.2855 0.86582 10.2855 1.9375V3.1C6.37444 3.99609 3.42772 7.90742 3.42772 12.5938V14.1316C3.42772 16.8805 2.59728 19.5506 1.08105 21.6939L0.282759 22.8262C-0.0279864 23.2621 -0.0869209 23.8615 0.127386 24.3641C0.341693 24.8666 0.791738 25.1875 1.28464 25.1875H22.7154C23.2083 25.1875 23.6583 24.8666 23.8726 24.3641C24.0869 23.8615 24.028 23.2621 23.7172 22.8262L22.9189 21.7C21.4027 19.5506 20.5723 16.8805 20.5723 14.1316V12.5938C20.5723 7.90742 17.6256 3.99609 13.7145 3.1V1.9375C13.7145 0.86582 12.9483 0 12 0ZM12 5.8125C15.3164 5.8125 18.0006 8.8459 18.0006 12.5938V14.1316C18.0006 17.0318 18.7453 19.8594 20.1276 22.2812H3.8724C5.25468 19.8594 5.9994 17.0318 5.9994 14.1316V12.5938C5.9994 8.8459 8.6836 5.8125 12 5.8125ZM15.4289 27.125H12H8.57109C8.57109 28.1543 8.93005 29.1412 9.57297 29.8678C10.2159 30.5943 11.0892 31 12 31C12.9108 31 13.7841 30.5943 14.427 29.8678C15.0699 29.1412 15.4289 28.1543 15.4289 27.125Z" fill="#1C418C"/>
</svg>
