<svg width="30" height="30" viewBox="0 0 30 30" fill="none" xmlns="http://www.w3.org/2000/svg">
<path fill-rule="evenodd" clip-rule="evenodd" d="M27.8885 12.8483V15.6809C27.8885 18.4925 27.0504 20.7605 25.2813 22.3941C23.6331 23.9165 21.1964 24.8695 17.9 25.177V30H12.1V25.2233C8.71295 24.8525 6.2482 23.9768 4.60432 22.5025C2.90432 20.9772 2.11223 18.8404 2.11367 15.989L2.11511 12.8483H1.57842C0.710791 12.8483 0 12.2696 0 11.5632V10.0724C0 9.36545 0.710791 8.78732 1.57842 8.78732H6.39568V2.03546C6.39568 0.915516 7.52086 0 8.89568 0C10.2705 0 11.395 0.917274 11.395 2.03546V8.78732H18.7331V2.03546C18.7331 0.915516 19.8576 0 21.2331 0C22.6079 0 23.7331 0.917274 23.7331 2.03546V8.78732H28.4209C29.2892 8.78732 30 9.36545 30 10.0724V11.5632C30 12.2696 29.2892 12.8483 28.4209 12.8483H27.8885ZM16.1237 15.2252H17.6424C17.7146 15.2252 17.7855 15.2412 17.8474 15.2714C17.9093 15.3016 17.9599 15.345 17.9939 15.3969C18.0279 15.4487 18.044 15.5071 18.0403 15.5658C18.0367 15.6245 18.0136 15.6813 17.9734 15.7301L14.3576 20.7529C14.303 20.8262 14.215 20.8789 14.1128 20.8996C14.0106 20.9202 13.9025 20.9071 13.8122 20.863C13.7418 20.8284 13.6863 20.7768 13.6534 20.7155C13.6204 20.6541 13.6115 20.5859 13.6281 20.5203L14.1612 17.4387L12.3633 17.4639C12.2581 17.4651 12.1566 17.4322 12.081 17.3727C12.0053 17.3131 11.9618 17.2315 11.9597 17.1459C11.9597 17.0838 11.9799 17.0264 12.0158 16.9766L15.5719 11.9562C15.5984 11.9196 15.6335 11.8876 15.6752 11.8621C15.7169 11.8365 15.7643 11.8179 15.8148 11.8073C15.8653 11.7967 15.9179 11.7943 15.9696 11.8002C16.0212 11.8062 16.0709 11.8204 16.1158 11.842C16.1834 11.8746 16.2376 11.9227 16.2715 11.9804C16.3054 12.038 16.3176 12.1026 16.3065 12.1659L16.1237 15.2252Z" fill="#fff"/>
</svg>
