<svg width="73" height="60" viewBox="0 0 73 60" fill="none" xmlns="http://www.w3.org/2000/svg">
<path d="M0 15C0 6.71573 6.71573 0 15 0H58C66.2843 0 73 6.71573 73 15V45C73 53.2843 66.2843 60 58 60H15C6.71573 60 0 53.2843 0 45V15Z" fill="#1C418C"/>
<path d="M52.3641 17.1064C53.3352 16.1236 53.1805 14.6639 52.0117 13.8473C50.843 13.0307 49.107 13.1607 48.1359 14.1436L36.5 25.8867L24.8641 14.1436C23.893 13.1607 22.157 13.0307 20.9883 13.8473C19.8195 14.6639 19.6648 16.1236 20.6359 17.1064L32.9164 29.5L20.6359 41.8936C19.6648 42.8764 19.8195 44.3361 20.9883 45.1527C22.157 45.9693 23.893 45.8393 24.8641 44.8564L36.5 33.1133L48.1359 44.8564C49.107 45.8393 50.843 45.9693 52.0117 45.1527C53.1805 44.3361 53.3352 42.8764 52.3641 41.8936L40.0836 29.5L52.3641 17.1064Z" fill="white"/>
</svg>
