<svg width="30" height="30" viewBox="0 0 30 30" fill="none" xmlns="http://www.w3.org/2000/svg">
<path fill-rule="evenodd" clip-rule="evenodd" d="M2.93921 8.82267H5.24127L10.878 0.593585C11.3785 -0.138314 12.2475 -0.201957 12.8066 0.450387C13.3681 1.10273 13.4169 2.23558 12.9164 2.96748L8.90797 8.82267H21.1921L17.1837 2.96748C16.6832 2.23558 16.732 1.10273 17.2935 0.450387C17.855 -0.201957 18.7216 -0.138314 19.2245 0.593585L24.8588 8.82267H27.0608H27.0901H29.1578C29.6216 8.82267 30 9.31591 30 9.92052V13.0168C30 13.6214 29.6216 14.1146 29.1578 14.1146H27.3684L26.448 29.2395C26.4236 29.6563 26.1844 30 25.8646 30H4.13541C3.81561 30 3.57637 29.6563 3.55196 29.2395L2.63162 14.1146H0.842217C0.378387 14.1146 0 13.6214 0 13.0168V9.92052C0 9.31591 0.378387 8.82267 0.842217 8.82267H2.90992H2.93921ZM18.9609 14.7097H21.6242V24.7431H18.9609V14.7097ZM13.7806 14.7097H16.4415V24.7431H13.7806V14.7097ZM8.60037 14.7097H11.2637V24.7431H8.60037V14.7097Z" fill="#1C418C"/>
</svg>
