<svg width="47" height="45" viewBox="0 0 47 45" fill="none" xmlns="http://www.w3.org/2000/svg">
<path fill-rule="evenodd" clip-rule="evenodd" d="M4.60477 13.234H8.21133L17.0422 0.890378C17.8263 -0.20747 19.1878 -0.302936 20.0636 0.675581C20.9433 1.6541 21.0198 3.35338 20.2357 4.45122L13.9558 13.234H33.201L26.9211 4.45122C26.137 3.35338 26.2135 1.6541 27.0932 0.675581C27.9728 -0.302936 29.3305 -0.20747 30.1184 0.890378L38.9455 13.234H42.3952H42.4411H45.6805C46.4072 13.234 47 13.9739 47 14.8808V19.5252C47 20.4321 46.4072 21.1719 45.6805 21.1719H42.8771L41.4353 43.8592C41.397 44.4845 41.0222 45 40.5212 45H6.4788C5.97779 45 5.60298 44.4845 5.56473 43.8592L4.12287 21.1719H1.31947C0.592807 21.1719 0 20.4321 0 19.5252V14.8808C0 13.9739 0.592807 13.234 1.31947 13.234H4.55887H4.60477ZM29.7053 22.0645H33.8779V37.1146H29.7053V22.0645ZM21.5896 22.0645H25.7584V37.1146H21.5896V22.0645ZM13.4739 22.0645H17.6465V37.1146H13.4739V22.0645Z" fill="#fff"/>
</svg>
