<svg width="39" height="38" viewBox="0 0 39 38" fill="none" xmlns="http://www.w3.org/2000/svg">
<g clip-path="url(#clip0_215_414)">
<path d="M29.8247 6.42754C30.9129 5.4998 30.9129 3.99316 29.8247 3.06543C28.7366 2.1377 26.9694 2.1377 25.8812 3.06543L13.9288 13.2631L8.93188 9.00293C7.84371 8.0752 6.07652 8.0752 4.98835 9.00293C3.90018 9.93067 3.90018 11.4373 4.98835 12.365L11.9526 18.3025C13.0408 19.2303 14.808 19.2303 15.8962 18.3025L29.8247 6.42754ZM38.1819 15.9275C39.27 14.9998 39.27 13.4932 38.1819 12.5654C37.0937 11.6377 35.3265 11.6377 34.2383 12.5654L13.9288 29.8881L4.75331 22.0729C3.66514 21.1451 1.89795 21.1451 0.80978 22.0729C-0.27839 23.0006 -0.27839 24.5072 0.80978 25.435L11.9526 34.935C13.0408 35.8627 14.808 35.8627 15.8962 34.935L38.1819 15.935V15.9275Z" fill="white"/>
</g>
<defs>
<clipPath id="clip0_215_414">
<rect width="39" height="38" fill="white"/>
</clipPath>
</defs>
</svg>
