<svg width="30" height="30" viewBox="0 0 30 30" fill="none" xmlns="http://www.w3.org/2000/svg">
<path fill-rule="evenodd" clip-rule="evenodd" d="M24.8022 3.58895L26.9551 5.74208C27.5217 6.30875 27.5217 7.23577 26.9551 7.80244L25.2214 9.53612C25.6997 10.4292 26.0647 11.3919 26.2968 12.4053H28.5427C29.3442 12.4053 30 13.0611 30 13.8624V16.9072C30 17.7087 29.3442 18.3645 28.5427 18.3645H26.0918C25.7912 19.3564 25.3613 20.2922 24.8212 21.1521L26.4111 22.7415C26.9778 23.3087 26.9778 24.2357 26.4111 24.8021L24.2583 26.9552C23.6916 27.5217 22.7643 27.5217 22.1979 26.9552L20.464 25.2213C19.5712 25.6998 18.6083 26.0651 17.5946 26.297V28.5429C17.5946 29.3442 16.9391 30 16.1376 30H13.0931C12.2916 30 11.6358 29.3442 11.6358 28.5429V26.0919C10.6439 25.7912 9.70809 25.3612 8.84846 24.8212L7.25885 26.411C6.69171 26.9777 5.7647 26.9777 5.19804 26.411L3.04519 24.2582C2.47854 23.6915 2.47854 22.7645 3.04519 22.1978L4.77909 20.4639C4.30057 19.571 3.93533 18.6084 3.70364 17.5949H1.45704C0.655767 17.5949 0 16.9394 0 16.1378V13.0931C0 12.2916 0.655767 11.636 1.45704 11.636H3.90799C4.20877 10.6441 4.63871 9.70825 5.17851 8.84836L3.5889 7.25897C3.02224 6.69206 3.02224 5.76479 3.5889 5.19837L5.74199 3.04524C6.30865 2.47858 7.23565 2.47858 7.80231 3.04524L9.53597 4.77892C10.429 4.3004 11.3917 3.93515 12.4054 3.70322V1.45731C12.4054 0.655778 13.0611 0 13.8624 0H16.9071C17.7084 0 18.3642 0.655778 18.3642 1.45731V3.90757C19.3564 4.20811 20.2924 4.63805 21.1528 5.1781L22.7414 3.58895C23.3085 3.02229 24.2355 3.02229 24.8022 3.58895ZM15.0001 9.01389C18.3058 9.01389 20.9863 11.6946 20.9863 15.0001C20.9863 18.3054 18.3058 20.9864 15.0001 20.9864C11.6947 20.9864 9.01399 18.3056 9.01399 15.0001C9.01399 11.6946 11.6947 9.01389 15.0001 9.01389Z" fill="#1C418C"/>
</svg>
