<svg width="73" height="60" viewBox="0 0 73 60" fill="none" xmlns="http://www.w3.org/2000/svg">
<path d="M0 15C0 6.71573 6.71573 0 15 0H58C66.2843 0 73 6.71573 73 15V45C73 53.2843 66.2843 60 58 60H15C6.71573 60 0 53.2843 0 45V15Z" fill="#1C418C"/>
<path d="M60.9509 14.9105C62.346 16.2045 62.346 18.3059 60.9509 19.5998L32.3795 46.0998C30.9844 47.3938 28.7188 47.3938 27.3237 46.0998L13.0379 32.8498C11.6429 31.5559 11.6429 29.4545 13.0379 28.1605C14.433 26.8666 16.6987 26.8666 18.0938 28.1605L29.8571 39.0607L55.9063 14.9105C57.3013 13.6166 59.567 13.6166 60.9621 14.9105H60.9509Z" fill="white"/>
</svg>
