<svg width="32" height="32" viewBox="0 0 34 34" fill="none" xmlns="http://www.w3.org/2000/svg">
<path d="M29.75 17C29.75 9.96094 24.0391 4.25 17 4.25V29.75C24.0391 29.75 29.75 24.0391 29.75 17ZM0 17C0 12.4913 1.79107 8.1673 4.97918 4.97919C8.1673 1.79107 12.4913 0 17 0C21.5087 0 25.8327 1.79107 29.0208 4.97919C32.2089 8.1673 34 12.4913 34 17C34 21.5087 32.2089 25.8327 29.0208 29.0208C25.8327 32.2089 21.5087 34 17 34C12.4913 34 8.1673 32.2089 4.97918 29.0208C1.79107 25.8327 0 21.5087 0 17Z" fill="#1C418C"/>
</svg>
