<svg width="30" height="30" viewBox="0 0 30 30" fill="none" xmlns="http://www.w3.org/2000/svg">
<g clip-path="url(#clip0_264_817)">
<path d="M7.14286 0.516602C8.13058 0.516602 8.92857 1.18691 8.92857 2.0166V3.5166H16.0714V2.0166C16.0714 1.18691 16.8694 0.516602 17.8571 0.516602C18.8449 0.516602 19.6429 1.18691 19.6429 2.0166V3.5166H22.3214C23.8002 3.5166 25 4.52441 25 5.7666V8.0166H0V5.7666C0 4.52441 1.19978 3.5166 2.67857 3.5166H5.35714V2.0166C5.35714 1.18691 6.15513 0.516602 7.14286 0.516602ZM0 9.5166H25V22.2666C25 23.5088 23.8002 24.5166 22.3214 24.5166H2.67857C1.19978 24.5166 0 23.5088 0 22.2666V9.5166ZM3.57143 13.2666V14.7666C3.57143 15.1791 3.97321 15.5166 4.46429 15.5166H6.25C6.74107 15.5166 7.14286 15.1791 7.14286 14.7666V13.2666C7.14286 12.8541 6.74107 12.5166 6.25 12.5166H4.46429C3.97321 12.5166 3.57143 12.8541 3.57143 13.2666ZM10.7143 13.2666V14.7666C10.7143 15.1791 11.1161 15.5166 11.6071 15.5166H13.3929C13.8839 15.5166 14.2857 15.1791 14.2857 14.7666V13.2666C14.2857 12.8541 13.8839 12.5166 13.3929 12.5166H11.6071C11.1161 12.5166 10.7143 12.8541 10.7143 13.2666ZM18.75 12.5166C18.2589 12.5166 17.8571 12.8541 17.8571 13.2666V14.7666C17.8571 15.1791 18.2589 15.5166 18.75 15.5166H20.5357C21.0268 15.5166 21.4286 15.1791 21.4286 14.7666V13.2666C21.4286 12.8541 21.0268 12.5166 20.5357 12.5166H18.75ZM3.57143 19.2666V20.7666C3.57143 21.1791 3.97321 21.5166 4.46429 21.5166H6.25C6.74107 21.5166 7.14286 21.1791 7.14286 20.7666V19.2666C7.14286 18.8541 6.74107 18.5166 6.25 18.5166H4.46429C3.97321 18.5166 3.57143 18.8541 3.57143 19.2666ZM11.6071 18.5166C11.1161 18.5166 10.7143 18.8541 10.7143 19.2666V20.7666C10.7143 21.1791 11.1161 21.5166 11.6071 21.5166H13.3929C13.8839 21.5166 14.2857 21.1791 14.2857 20.7666V19.2666C14.2857 18.8541 13.8839 18.5166 13.3929 18.5166H11.6071ZM17.8571 19.2666V20.7666C17.8571 21.1791 18.2589 21.5166 18.75 21.5166H20.5357C21.0268 21.5166 21.4286 21.1791 21.4286 20.7666V19.2666C21.4286 18.8541 21.0268 18.5166 20.5357 18.5166H18.75C18.2589 18.5166 17.8571 18.8541 17.8571 19.2666Z" fill="#1C418C"/>
</g>
<defs>
<clipPath id="clip0_264_817">
<rect width="25" height="24" fill="white" transform="translate(0 0.516602)"/>
</clipPath>
</defs>
</svg>
