<svg width="45" height="45" viewBox="0 0 30 30" fill="none" xmlns="http://www.w3.org/2000/svg">
<path d="M13.1314 28.4619C13.62 28.4619 14.0159 28.8062 14.0159 29.231C14.0159 29.6558 13.62 30 13.1314 30H2.05802C1.49087 30 0.977067 29.7998 0.603648 29.4751C0.230229 29.1504 0 28.7036 0 28.2104V1.78955C0 1.29639 0.230229 0.849609 0.603648 0.524902C0.977067 0.200195 1.49087 0 2.05802 0H27.3326C27.8998 0 28.4136 0.202637 28.787 0.524902C29.1604 0.849609 29.3906 1.29639 29.3906 1.78955V14.0308C29.3906 14.4556 28.9948 14.7998 28.5062 14.7998C28.0177 14.7998 27.6218 14.4556 27.6218 14.0308V1.78955C27.6218 1.72119 27.5881 1.65771 27.5348 1.61377C27.4814 1.56738 27.4084 1.53809 27.3326 1.53809H2.05802C1.9794 1.53809 1.9064 1.56738 1.85306 1.61133C1.80252 1.66016 1.76883 1.72119 1.76883 1.78955V28.208C1.76883 28.2764 1.80252 28.3398 1.85587 28.3838C1.90921 28.4302 1.98221 28.4595 2.06083 28.4595H13.1314V28.4619ZM27.7117 18.1494C27.5685 18.0298 27.4028 17.9736 27.2119 17.9761C27.021 17.9785 26.8581 18.0444 26.7234 18.1665L25.6256 19.1602L28.7056 21.7456L29.8146 20.7422C29.9466 20.625 30.0027 20.4736 29.9999 20.3076C29.9971 20.144 29.9297 19.9951 29.7949 19.8828L27.7117 18.1494ZM21.9587 27.8345C21.5516 27.9468 21.1473 28.064 20.743 28.1787C20.3359 28.2959 19.9316 28.4155 19.5273 28.5327C18.5699 28.8062 18.0336 28.9575 17.9213 28.9844C17.8118 29.0137 17.8764 28.623 18.1179 27.8101L18.8787 25.2588L24.6485 20.0391L27.7257 22.6147L21.9587 27.8345ZM8.86661 10.0293C8.37807 10.0293 7.98219 9.68506 7.98219 9.26025C7.98219 8.83545 8.37807 8.49121 8.86661 8.49121H20.5296C21.0182 8.49121 21.4141 8.83545 21.4141 9.26025C21.4141 9.68506 21.0182 10.0293 20.5296 10.0293H8.86661ZM8.86661 20.9399C8.37807 20.9399 7.97938 20.5908 7.97938 20.1611C7.97938 19.7314 8.37526 19.3823 8.86661 19.3823H14.6139C15.1024 19.3823 15.5011 19.7314 15.5011 20.1611C15.5011 20.5908 15.1052 20.9399 14.6139 20.9399H8.86661ZM8.86661 15.481C8.37807 15.481 7.98219 15.1367 7.98219 14.7119C7.98219 14.2871 8.37807 13.9429 8.86661 13.9429H20.5296C21.0182 13.9429 21.4141 14.2871 21.4141 14.7119C21.4141 15.1367 21.0182 15.481 20.5296 15.481H8.86661Z" fill="#fff"/>
</svg>
