<svg width="32" height="35" viewBox="0 0 32 35" fill="none" xmlns="http://www.w3.org/2000/svg">
<path d="M9.65714 1.20996L9.14286 2.1875H2.28571C1.02143 2.1875 0 3.16504 0 4.375C0 5.58496 1.02143 6.5625 2.28571 6.5625H29.7143C30.9786 6.5625 32 5.58496 32 4.375C32 3.16504 30.9786 2.1875 29.7143 2.1875H22.8571L22.3429 1.20996C21.9571 0.464844 21.1643 0 20.3 0H11.7C10.8357 0 10.0429 0.464844 9.65714 1.20996ZM29.7143 8.75H2.28571L3.8 31.9238C3.91429 33.6533 5.41429 35 7.22143 35H24.7786C26.5857 35 28.0857 33.6533 28.2 31.9238L29.7143 8.75Z" fill="white"/>
</svg>
