<svg width="30" height="30" viewBox="0 0 30 30" fill="none" xmlns="http://www.w3.org/2000/svg">
<path d="M17.0089 3.09375C16.6942 2.36133 15.8906 1.875 15 1.875C14.1094 1.875 13.3058 2.36133 12.9911 3.09375L3.87054 24.375H2.14286C0.957589 24.375 0 25.2129 0 26.25C0 27.2871 0.957589 28.125 2.14286 28.125H8.57143C9.7567 28.125 10.7143 27.2871 10.7143 26.25C10.7143 25.2129 9.7567 24.375 8.57143 24.375H8.45089L9.65625 21.5625H20.3437L21.5491 24.375H21.4286C20.2433 24.375 19.2857 25.2129 19.2857 26.25C19.2857 27.2871 20.2433 28.125 21.4286 28.125H27.8571C29.0424 28.125 30 27.2871 30 26.25C30 25.2129 29.0424 24.375 27.8571 24.375H26.1295L17.0089 3.09375ZM18.7366 17.8125H11.2634L15 9.08789L18.7366 17.8125Z" fill="#1C418C"/>
</svg>
