<svg width="45" height="45" viewBox="0 0 45 45" fill="none" xmlns="http://www.w3.org/2000/svg">
<path fill-rule="evenodd" clip-rule="evenodd" d="M12.0061 6.12286V2.02652H7.21638V6.18662C8.70512 6.04797 10.5338 6.12286 12.0061 6.12286ZM13.9904 13.7808C18.1085 15.6851 20.1829 17.3951 15.0225 19.3818C16.6014 17.608 16.0485 16.6357 14.8208 15.9928C14.615 16.1706 13.0382 17.2365 14.5997 19.225C8.39078 16.82 15.0655 15.0029 13.9904 13.7808ZM10.072 22.5532V22.4175H9.6215V21.6453H11.7502V23.3307C11.0562 23.4815 10.3199 23.5584 9.57747 23.5577C8.57099 23.5577 7.87884 23.4179 7.50205 23.1388C7.30751 22.9943 7.17236 22.8247 7.09556 22.6293C7.0198 22.4339 6.98089 22.1929 6.98089 21.905C6.98089 21.6172 7.02082 21.3768 7.10068 21.1837C7.17952 20.9901 7.32287 20.821 7.52867 20.6765C7.91775 20.3939 8.66826 20.2523 9.78123 20.2523C10.0106 20.2523 10.3096 20.2658 10.6771 20.2927C11.0447 20.3196 11.315 20.35 11.485 20.384L11.2198 21.1556C10.7437 21.1088 10.3116 21.0854 9.92662 21.0854C9.54061 21.0854 9.27031 21.1018 9.11365 21.1357C8.95802 21.1691 8.88021 21.2364 8.88021 21.3376V22.7656H9.4628C9.67474 22.7656 9.82935 22.7527 9.92662 22.7276C10.0239 22.7024 10.072 22.6445 10.072 22.5532ZM14.1922 23.4823H12.3287L13.759 20.3284H16.4887L17.9191 23.4823H16.0556L15.8529 22.9826H14.3949L14.1922 23.4823ZM15.0747 21.2972L14.7133 22.18H15.5253L15.172 21.2972H15.0747ZM18.3655 23.4267L18.6123 22.5942C19.1539 22.6714 19.6413 22.71 20.0744 22.71C20.5065 22.71 20.8556 22.7001 21.1208 22.6796V22.4275L20.3253 22.3871C19.6075 22.3502 19.114 22.2514 18.8457 22.0917C18.5785 21.9319 18.4444 21.6956 18.4444 21.3826C18.4444 20.9526 18.6082 20.656 18.9348 20.4951C19.2614 20.3331 19.8164 20.2523 20.5997 20.2523C21.3829 20.2523 22.0894 20.2945 22.7191 20.3787L22.498 21.186C21.9502 21.1357 21.5119 21.1106 21.1823 21.1106C20.8526 21.1106 20.573 21.1188 20.3427 21.1357V21.3826L20.9795 21.4183C21.7505 21.4616 22.2829 21.5669 22.5778 21.7336C22.8717 21.9004 23.0191 22.1314 23.0191 22.4275C23.0191 22.6392 22.9689 22.8183 22.8686 22.9645C22.7693 23.1114 22.6495 23.2225 22.5113 23.298C22.373 23.3734 22.1775 23.4319 21.9246 23.4717C21.6706 23.5127 21.4485 23.5367 21.257 23.5454C21.0655 23.5536 20.8116 23.5577 20.4932 23.5577C19.7283 23.5577 19.0188 23.5138 18.3655 23.4267ZM0 12.7248H30V24.5874C30 25.8083 28.8205 26.8777 27.0768 27.4417V29.1166C27.0768 29.6022 26.3805 30 25.5307 30H4.46519C3.61536 30 2.91809 29.6022 2.91809 29.1166V27.4417C1.1785 26.8777 0 25.8083 0 24.5874V12.7248ZM17.9457 6.12286C19.457 6.12286 21.2764 6.04388 22.7355 6.18428L22.7365 2.02652H17.9457V6.12286ZM24.3901 6.39431C27.6502 7.0507 30 8.83327 30 10.913V11.6162H0V10.913C0 8.84263 2.32833 7.07059 5.56382 6.40425L5.5628 2.02652H5.43891C4.46519 2.02652 3.66553 1.56962 3.66553 1.01326C3.66553 0.456318 4.46109 0 5.43891 0H24.5181C25.4918 0 26.2915 0.456318 26.2915 1.01326C26.2915 1.56962 25.4918 2.02652 24.5181 2.02652H24.3942V6.39431H24.3901Z" fill="#1C418C"/>
</svg>
