<svg width="47" height="45" viewBox="0 0 47 45" fill="none" xmlns="http://www.w3.org/2000/svg">
<path fill-rule="evenodd" clip-rule="evenodd" d="M18.8096 9.18428V3.03978H11.3057V9.27993C13.638 9.07196 16.5029 9.18428 18.8096 9.18428ZM21.9184 20.6712C28.37 23.5276 31.6199 26.0926 23.5353 29.0727C26.0088 26.4121 25.1426 24.9536 23.2193 23.9892C22.8969 24.2559 20.4266 25.8548 22.8728 28.8376C13.1456 25.23 23.6027 22.5044 21.9184 20.6712ZM15.7795 33.8299V33.6263H15.0737V32.4679H18.4086V34.9961C17.3214 35.2222 16.1678 35.3376 15.0047 35.3366C13.4279 35.3366 12.3435 35.1269 11.7532 34.7083C11.4484 34.4915 11.2367 34.237 11.1164 33.9439C10.9977 33.6508 10.9367 33.2893 10.9367 32.8575C10.9367 32.4258 10.9993 32.0651 11.1244 31.7755C11.2479 31.4851 11.4725 31.2315 11.7949 31.0147C12.4045 30.5909 13.5803 30.3785 15.3239 30.3785C15.6832 30.3785 16.1516 30.3987 16.7275 30.4391C17.3034 30.4794 17.7269 30.5251 17.9931 30.576L17.5777 31.7334C16.8318 31.6632 16.1548 31.6281 15.5517 31.6281C14.947 31.6281 14.5235 31.6527 14.2781 31.7036C14.0342 31.7536 13.9123 31.8545 13.9123 32.0063V34.1484H14.8251C15.1571 34.1484 15.3993 34.1291 15.5517 34.0914C15.7041 34.0536 15.7795 33.9668 15.7795 33.8299ZM22.2344 35.2234H19.3149L21.5558 30.4926H25.8324L28.0733 35.2234H25.1538L24.8362 34.474H22.552L22.2344 35.2234ZM23.6171 31.9458L23.0509 33.27H24.3229L23.7695 31.9458H23.6171ZM28.7727 35.14L29.1592 33.8913C30.0078 34.0071 30.7714 34.065 31.4499 34.065C32.1268 34.065 32.6738 34.0501 33.0893 34.0194V33.6412L31.8429 33.5806C30.7184 33.5254 29.9453 33.377 29.525 33.1375C29.1063 32.8979 28.8962 32.5434 28.8962 32.0739C28.8962 31.4289 29.1528 30.984 29.6645 30.7427C30.1762 30.4996 31.0457 30.3785 32.2728 30.3785C33.4999 30.3785 34.6068 30.4417 35.5933 30.5681L35.2468 31.7791C34.3886 31.7036 33.702 31.6659 33.1855 31.6659C32.669 31.6659 32.2311 31.6781 31.8702 31.7036V32.0739L32.8679 32.1274C34.0758 32.1924 34.9099 32.3503 35.3719 32.6004C35.8323 32.8505 36.0633 33.1972 36.0633 33.6412C36.0633 33.9589 35.9847 34.2274 35.8275 34.4468C35.6719 34.667 35.4842 34.8338 35.2676 34.947C35.0511 35.0602 34.7447 35.1479 34.3485 35.2076C33.9507 35.269 33.6026 35.305 33.3026 35.3182C33.0027 35.3304 32.6048 35.3366 32.106 35.3366C30.9077 35.3366 29.7961 35.2708 28.7727 35.14ZM0 19.0873H47V36.881C47 38.7125 45.1521 40.3166 42.4203 41.1625V43.6749C42.4203 44.4033 41.3295 45 39.9981 45H6.99546C5.66406 45 4.57167 44.4033 4.57167 43.6749V41.1625C1.84631 40.3166 0 38.7125 0 36.881V19.0873ZM28.115 9.18428C30.4826 9.18428 33.3331 9.06581 35.6189 9.27642L35.6205 3.03978H28.115V9.18428ZM38.2112 9.59146C43.3186 10.5761 47 13.2499 47 16.3695V17.4243H0V16.3695C0 13.2639 3.64771 10.6059 8.71665 9.60638L8.71505 3.03978H8.52096C6.99546 3.03978 5.74266 2.35443 5.74266 1.51989C5.74266 0.684477 6.98904 0 8.52096 0H38.4117C39.9372 0 41.19 0.684477 41.19 1.51989C41.19 2.35443 39.9372 3.03978 38.4117 3.03978H38.2176V9.59146H38.2112Z" fill="white"/>
</svg>
