<svg width="30" height="30" viewBox="0 0 30 30" fill="none" xmlns="http://www.w3.org/2000/svg">
<path d="M29.9896 14.9707C29.9896 16.0254 29.2083 16.8516 28.3229 16.8516H26.6562L26.6927 26.2383C26.7031 28.3184 25.2083 30.0059 23.3594 30.0059H6.67188C4.83333 30.0059 3.33854 28.3242 3.33854 26.2559V16.8516H1.66667C0.729167 16.8516 0 16.0312 0 14.9707C0 14.4434 0.15625 13.9746 0.520833 13.5645L13.875 0.46875C14.2396 0.0585937 14.6562 0 15.0208 0C15.3854 0 15.8021 0.117187 16.1146 0.410156L29.4167 13.5645C29.8333 13.9746 30.0417 14.4434 29.9896 14.9707ZM18.3333 13.125C18.3333 12.1304 17.9821 11.1766 17.357 10.4733C16.7319 9.77009 15.8841 9.375 15 9.375C14.1159 9.375 13.2681 9.77009 12.643 10.4733C12.0179 11.1766 11.6667 12.1304 11.6667 13.125C11.6667 14.1196 12.0179 15.0734 12.643 15.7766C13.2681 16.4799 14.1159 16.875 15 16.875C15.8841 16.875 16.7319 16.4799 17.357 15.7766C17.9821 15.0734 18.3333 14.1196 18.3333 13.125ZM13.3333 18.75C11.0313 18.75 9.16667 20.8477 9.16667 23.4375C9.16667 23.9531 9.54167 24.375 10 24.375H20C20.4583 24.375 20.8333 23.9531 20.8333 23.4375C20.8333 20.8477 18.9688 18.75 16.6667 18.75H13.3333Z" fill="#1C418C"/>
</svg>
