<svg width="26" height="25" viewBox="0 0 26 25" fill="none" xmlns="http://www.w3.org/2000/svg">
<g clip-path="url(#clip0_264_820)">
<path d="M8.35714 7.2666V9.5166H17.6429V7.2666C17.6429 5.19473 15.5652 3.5166 13 3.5166C10.4348 3.5166 8.35714 5.19473 8.35714 7.2666ZM4.64286 9.5166V7.2666C4.64286 3.54004 8.38616 0.516602 13 0.516602C17.6138 0.516602 21.3571 3.54004 21.3571 7.2666V9.5166H22.2857C24.3344 9.5166 26 10.8619 26 12.5166V21.5166C26 23.1713 24.3344 24.5166 22.2857 24.5166H3.71429C1.66562 24.5166 0 23.1713 0 21.5166V12.5166C0 10.8619 1.66562 9.5166 3.71429 9.5166H4.64286Z" fill="#1C418C"/>
</g>
<defs>
<clipPath id="clip0_264_820">
<rect width="26" height="25" fill="white" transform="translate(0 0.516602)"/>
</clipPath>
</defs>
</svg>
