<svg width="30" height="30" viewBox="0 0 30 30" fill="none" xmlns="http://www.w3.org/2000/svg">
<path fill-rule="evenodd" clip-rule="evenodd" d="M99.8389 71.4531C116.648 71.4531 130.267 85.0155 130.267 101.755C130.267 104.053 130.003 106.285 129.528 108.438C130.333 108.53 131.137 108.622 131.928 108.727C133.193 108.897 134.459 109.068 135.698 109.265L136.028 109.344C136.502 109.501 136.951 109.593 137.359 109.619C137.808 109.646 138.23 109.619 138.625 109.541C139.759 109.317 141.446 108.267 143.266 107.138C145.296 105.878 147.471 104.538 149.778 103.764C151.334 103.239 156.766 102.884 161.934 102.779C167.813 102.648 173.654 103.147 174.247 104.328C174.709 105.234 174.999 106.403 174.893 107.703C174.814 108.74 174.484 109.856 173.812 110.985C172.27 113.571 169.488 115.488 166.851 117.287C164.175 119.112 161.723 120.792 162.131 122.053C162.158 122.158 162.421 122.381 162.817 122.696C163.397 123.156 164.241 123.694 165.124 124.232C168.67 126.385 171.439 128.67 173.786 131.361C176.106 134.026 178.031 137.072 179.916 140.814C180.47 141.904 180.997 143.02 181.498 144.175C182.039 145.409 182.553 146.657 183.041 147.917L183.146 148.324C183.436 150.044 183.818 151.357 184.333 152.158C184.583 152.552 184.82 152.749 185.044 152.749L185.11 152.735H187.879C188.327 152.735 188.683 152.709 189 152.696C191.636 152.512 193.113 152.42 194.655 156.359C195.723 159.09 196.079 162.897 195.921 166.692C195.75 170.775 194.998 174.937 193.904 177.786C193.508 179.663 192.651 181.16 191.32 182.263C189.988 183.352 188.248 184.009 186.073 184.18L185.901 184.193H182.816C181.472 184.193 180.298 184.14 179.428 184.114C178.598 184.088 178.426 183.97 178.321 184.022C178.163 184.101 178.36 184.114 178.136 184.403C177.583 185.164 176.699 186.372 174.84 188.289C173.509 189.654 171.966 191.164 170.49 192.556C169.119 193.843 167.748 195.064 166.614 196.009L165.915 196.587C164.636 197.637 164.017 198.149 163.99 198.307C163.938 198.608 164.32 199.528 165.071 201.326C165.388 202.088 165.585 202.547 165.651 202.718C166.403 204.556 167.154 206.342 167.84 207.904C168.987 210.543 170.252 213.326 170.661 214.245L170.701 214.337C171.637 216.7 171.426 218.499 170.121 219.786C169.013 220.875 167.26 221.296 164.887 221.112H153.773C152.217 221.217 150.741 220.889 149.356 220.101C148.038 219.352 146.838 218.223 145.757 216.714L145.652 216.543C145.243 215.834 144.821 214.902 144.373 213.904C143.279 211.488 141.934 208.482 140.84 208.915C133.299 211.843 125.929 213.589 117.953 213.851C110.069 214.114 101.632 212.932 91.8892 209.991C89.0942 209.598 88.5273 210.779 87.6309 212.644C87.3804 213.169 87.1167 213.733 86.7476 214.429C86.5234 214.889 86.4443 215.072 86.3521 215.243C85.0601 217.987 83.8208 220.639 79.958 221.414L79.5361 221.453L65.1792 221.348H65.0342C64.1509 221.282 63.373 221.086 62.6875 220.718C61.8965 220.311 61.29 219.72 60.855 218.932C59.5762 216.608 60.4331 214.849 61.3032 213.077H61.29C61.4351 212.775 61.5933 212.46 61.6328 212.381L61.646 212.368L66.6953 201.366L66.7876 201.182C67.3149 200.276 67.5127 199.528 67.394 198.95C67.2754 198.385 66.8535 197.834 66.1548 197.296C65.1528 196.587 64.1772 195.851 63.2412 195.103C62.2656 194.328 61.3428 193.528 60.4463 192.714C57.48 190.009 54.7378 186.832 52.3911 183.339C50.1367 179.991 48.2383 176.342 46.8672 172.534C45.7993 169.554 45.0478 166.495 44.6787 163.422C44.5996 162.714 44.5337 161.991 44.4941 161.282C39.8403 159.05 36.5576 155.072 34.9756 149.821C33.3804 144.477 33.5781 137.834 35.9512 130.429L39.9853 131.716C37.876 138.267 37.6782 144.057 39.0361 148.613C40.0513 151.974 41.9365 154.665 44.5601 156.464C44.6128 155.834 44.6919 155.191 44.7842 154.56C45.7861 147.681 48.4624 141.274 52.2856 135.589C56.3857 129.51 61.791 124.272 67.8555 120.215C68.8838 119.532 69.9517 118.862 71.0459 118.219C71.8501 117.746 72.6411 117.313 73.4058 116.906C70.8218 112.455 69.3584 107.296 69.3584 101.781C69.4111 85.0155 83.0298 71.4531 99.8389 71.4531ZM158.677 145.212C160.576 145.212 162.29 145.974 163.529 147.208C164.768 148.442 165.533 150.149 165.533 152.04C165.533 153.93 164.768 155.637 163.529 156.871C162.29 158.105 160.576 158.867 158.677 158.867C156.792 158.867 155.078 158.105 153.839 156.871C152.6 155.637 151.835 153.93 151.835 152.053C151.835 150.162 152.6 148.455 153.839 147.221C155.065 145.987 156.779 145.212 158.677 145.212ZM160.523 150.215C160.048 149.742 159.402 149.453 158.677 149.453C157.952 149.453 157.306 149.742 156.832 150.215C156.357 150.687 156.067 151.331 156.067 152.053C156.067 152.775 156.357 153.431 156.818 153.891L156.832 153.904C157.293 154.363 157.952 154.652 158.677 154.652C159.402 154.652 160.048 154.363 160.523 153.891C160.998 153.418 161.288 152.775 161.288 152.053C161.288 151.331 160.998 150.674 160.523 150.215ZM77.585 129.261H87.0508C82.6475 127.226 78.811 124.166 75.8579 120.398C74.9351 120.884 74.0649 121.357 73.2476 121.829C72.2456 122.407 71.2568 123.037 70.2813 123.694C64.6519 127.449 59.6421 132.293 55.8716 137.913C52.3911 143.086 49.9521 148.915 49.0425 155.138C48.6733 157.724 48.6602 160.337 48.9634 162.937C49.293 165.707 49.9653 168.451 50.9145 171.103C52.167 174.569 53.894 177.904 55.9639 180.976C58.1128 184.166 60.644 187.094 63.373 189.589C64.2168 190.35 65.0737 191.086 65.957 191.794C66.8667 192.517 67.7896 193.226 68.752 193.895L68.8311 193.948C70.3472 195.116 71.3096 196.495 71.626 198.136C71.9424 199.738 71.6128 201.444 70.5449 203.282L65.5747 214.101C65.377 214.534 65.2847 214.731 65.1792 214.928H65.166C64.7837 215.716 64.4014 216.49 64.6387 216.91C64.6519 216.937 64.6914 216.963 64.731 216.989C64.876 217.068 65.1001 217.121 65.4033 217.134L79.3779 217.226C81.0127 216.792 81.7905 215.151 82.5815 213.444C82.7661 213.064 82.9375 212.683 82.9902 212.578L83.0298 212.499C83.3066 211.987 83.5967 211.383 83.8604 210.819C85.6006 207.169 86.6816 204.884 92.667 205.803L92.9702 205.882C102.331 208.718 110.386 209.86 117.874 209.611C125.323 209.361 132.257 207.72 139.376 204.95C144.215 203.072 146.482 208.101 148.302 212.158C148.671 212.985 149.014 213.746 149.356 214.35C150.055 215.309 150.767 216.005 151.492 216.412C152.151 216.779 152.85 216.937 153.602 216.871L153.773 216.858H165.019L165.19 216.871C166.337 216.963 167.022 216.937 167.194 216.766C167.194 216.766 167.075 216.503 166.864 215.952C166.521 215.204 165.427 212.762 164.03 209.545C163.199 207.641 162.382 205.738 161.789 204.28C161.301 203.099 161.261 202.98 161.222 202.902C160.167 200.355 159.626 199.042 159.877 197.571C160.167 195.878 161.195 195.037 163.305 193.304L163.99 192.74C164.992 191.913 166.297 190.744 167.668 189.444C169.119 188.092 170.595 186.622 171.887 185.309C173.509 183.641 174.3 182.565 174.788 181.882C175.381 181.055 175.71 180.608 176.515 180.215C177.398 179.768 178.11 179.808 179.679 179.86C180.364 179.886 181.3 179.926 182.909 179.926H185.928C187.154 179.821 188.077 179.493 188.696 178.98C189.29 178.495 189.672 177.759 189.856 176.801L189.975 176.42C190.938 173.991 191.623 170.25 191.768 166.508C191.9 163.226 191.623 160.022 190.779 157.856C190.371 156.819 190.001 156.832 189.355 156.884C188.92 156.91 188.433 156.95 187.945 156.95H185.176V156.937C183.331 156.976 181.894 156.083 180.813 154.377C180.021 153.116 179.441 151.37 179.072 149.204C178.598 147.97 178.136 146.84 177.675 145.816C177.174 144.674 176.673 143.611 176.185 142.652C174.471 139.265 172.744 136.495 170.635 134.092C168.565 131.716 166.113 129.707 162.975 127.79C162 127.199 161.05 126.595 160.233 125.939C159.231 125.138 158.466 124.272 158.15 123.287C156.792 119.046 160.47 116.512 164.491 113.755C166.746 112.206 169.132 110.578 170.2 108.779C170.516 108.254 170.661 107.768 170.701 107.335C170.74 106.862 170.648 106.468 170.503 106.18C170.318 105.812 166.561 106.849 162.052 106.954C157.24 107.059 152.31 107.348 151.163 107.729C149.356 108.333 147.392 109.554 145.546 110.696C143.397 112.035 141.407 113.269 139.495 113.65C138.717 113.808 137.913 113.86 137.122 113.808C136.384 113.755 135.632 113.611 134.868 113.374C133.734 113.191 132.574 113.033 131.414 112.875C130.398 112.744 129.357 112.626 128.315 112.508C125.481 119.9 119.838 125.913 112.667 129.221H125.165V134.867H77.585V129.261ZM112.917 91.8295L104.466 93.1555C104.044 92.0921 103.662 91.3568 103.319 90.9498C102.977 90.5428 102.423 90.1227 101.632 89.7026V96.2277C106.22 97.4488 109.292 98.7354 110.834 100.088C112.864 101.913 113.893 104.223 113.893 107.033C113.893 108.674 113.523 110.184 112.798 111.549C112.06 112.928 111.124 114.057 109.99 114.989C108.856 115.908 107.63 116.565 106.352 116.985C105.073 117.405 103.491 117.641 101.632 117.72V121.974H98.3359V117.72C96.1079 117.523 94.3149 117.169 92.9307 116.657C91.5464 116.145 90.3467 115.422 89.3447 114.503C88.3428 113.598 87.5649 112.613 87.0244 111.549C86.4839 110.499 86.0752 109.212 85.7983 107.716L94.9478 106.665C95.2246 108.149 95.5938 109.212 96.0552 109.869C96.5166 110.525 97.2813 111.116 98.3359 111.615V103.633C95.2642 102.792 93.1021 102.057 91.8232 101.44C90.5444 100.823 89.437 99.8251 88.501 98.4597C87.5649 97.0943 87.0903 95.44 87.0903 93.4838C87.0903 90.8054 88.0396 88.5603 89.9116 86.7617C91.7969 84.963 94.605 83.952 98.3228 83.7682V81.5494H101.619V83.7682C105.007 83.9783 107.604 84.766 109.397 86.1577C111.203 87.5363 112.376 89.4269 112.917 91.8295ZM98.3359 89.5975C97.3604 89.9126 96.688 90.3065 96.3057 90.766C95.9233 91.2256 95.7388 91.777 95.7388 92.4203C95.7388 93.0768 95.9365 93.6544 96.3189 94.1402C96.7012 94.6391 97.3735 95.0461 98.3359 95.3744V89.5975ZM101.632 111.838C102.911 111.549 103.86 111.077 104.453 110.42C105.046 109.764 105.35 109.029 105.35 108.215C105.35 107.506 105.099 106.849 104.585 106.245C104.084 105.654 103.095 105.09 101.632 104.591V111.838Z" fill="white"/>
<path fill-rule="evenodd" clip-rule="evenodd" d="M21.3923 125.966V119.959C17.0442 121.792 12.9748 121.832 9.59293 120.57C6.95432 119.593 4.72451 117.841 3.08931 115.581C1.45412 113.321 0.41354 110.572 0.0976501 107.538C-0.385476 102.834 0.896665 97.5198 4.55727 92.531C4.74309 92.2867 4.94749 92.0423 5.18905 91.8387L111.217 1.1246C112.592 -0.260033 114.71 -0.402569 116.234 0.900619L222.503 91.4315C222.67 91.574 222.819 91.7165 222.967 91.8998C227.891 97.7031 229.118 104.138 227.929 109.574C227.334 112.262 226.163 114.665 224.547 116.66C222.93 118.656 220.867 120.203 218.526 121.12C214.81 122.586 210.387 122.545 205.909 120.224V125.966H195.503V115.215C195.503 113.158 122.607 50.0145 114.561 43.1524C106.032 50.2589 31.7981 112.893 31.7981 115.54V125.986H21.3923V125.966ZM174.246 7.2333L206.151 8.65866V55.8789L174.246 32.8084V7.2333Z" fill="white"/>
</svg>