<!-- <svg width="30" height="30" viewBox="0 0 30 30" fill="none" xmlns="http://www.w3.org/2000/svg">
<path fill-rule="evenodd" clip-rule="evenodd" d="M99.8389 71.4531C116.648 71.4531 130.267 85.0155 130.267 101.755C130.267 104.053 130.003 106.285 129.528 108.438C130.333 108.53 131.137 108.622 131.928 108.727C133.193 108.897 134.459 109.068 135.698 109.265L136.028 109.344C136.502 109.501 136.951 109.593 137.359 109.619C137.808 109.646 138.23 109.619 138.625 109.541C139.759 109.317 141.446 108.267 143.266 107.138C145.296 105.878 147.471 104.538 149.778 103.764C151.334 103.239 156.766 102.884 161.934 102.779C167.813 102.648 173.654 103.147 174.247 104.328C174.709 105.234 174.999 106.403 174.893 107.703C174.814 108.74 174.484 109.856 173.812 110.985C172.27 113.571 169.488 115.488 166.851 117.287C164.175 119.112 161.723 120.792 162.131 122.053C162.158 122.158 162.421 122.381 162.817 122.696C163.397 123.156 164.241 123.694 165.124 124.232C168.67 126.385 171.439 128.67 173.786 131.361C176.106 134.026 178.031 137.072 179.916 140.814C180.47 141.904 180.997 143.02 181.498 144.175C182.039 145.409 182.553 146.657 183.041 147.917L183.146 148.324C183.436 150.044 183.818 151.357 184.333 152.158C184.583 152.552 184.82 152.749 185.044 152.749L185.11 152.735H187.879C188.327 152.735 188.683 152.709 189 152.696C191.636 152.512 193.113 152.42 194.655 156.359C195.723 159.09 196.079 162.897 195.921 166.692C195.75 170.775 194.998 174.937 193.904 177.786C193.508 179.663 192.651 181.16 191.32 182.263C189.988 183.352 188.248 184.009 186.073 184.18L185.901 184.193H182.816C181.472 184.193 180.298 184.14 179.428 184.114C178.598 184.088 178.426 183.97 178.321 184.022C178.163 184.101 178.36 184.114 178.136 184.403C177.583 185.164 176.699 186.372 174.84 188.289C173.509 189.654 171.966 191.164 170.49 192.556C169.119 193.843 167.748 195.064 166.614 196.009L165.915 196.587C164.636 197.637 164.017 198.149 163.99 198.307C163.938 198.608 164.32 199.528 165.071 201.326C165.388 202.088 165.585 202.547 165.651 202.718C166.403 204.556 167.154 206.342 167.84 207.904C168.987 210.543 170.252 213.326 170.661 214.245L170.701 214.337C171.637 216.7 171.426 218.499 170.121 219.786C169.013 220.875 167.26 221.296 164.887 221.112H153.773C152.217 221.217 150.741 220.889 149.356 220.101C148.038 219.352 146.838 218.223 145.757 216.714L145.652 216.543C145.243 215.834 144.821 214.902 144.373 213.904C143.279 211.488 141.934 208.482 140.84 208.915C133.299 211.843 125.929 213.589 117.953 213.851C110.069 214.114 101.632 212.932 91.8892 209.991C89.0942 209.598 88.5273 210.779 87.6309 212.644C87.3804 213.169 87.1167 213.733 86.7476 214.429C86.5234 214.889 86.4443 215.072 86.3521 215.243C85.0601 217.987 83.8208 220.639 79.958 221.414L79.5361 221.453L65.1792 221.348H65.0342C64.1509 221.282 63.373 221.086 62.6875 220.718C61.8965 220.311 61.29 219.72 60.855 218.932C59.5762 216.608 60.4331 214.849 61.3032 213.077H61.29C61.4351 212.775 61.5933 212.46 61.6328 212.381L61.646 212.368L66.6953 201.366L66.7876 201.182C67.3149 200.276 67.5127 199.528 67.394 198.95C67.2754 198.385 66.8535 197.834 66.1548 197.296C65.1528 196.587 64.1772 195.851 63.2412 195.103C62.2656 194.328 61.3428 193.528 60.4463 192.714C57.48 190.009 54.7378 186.832 52.3911 183.339C50.1367 179.991 48.2383 176.342 46.8672 172.534C45.7993 169.554 45.0478 166.495 44.6787 163.422C44.5996 162.714 44.5337 161.991 44.4941 161.282C39.8403 159.05 36.5576 155.072 34.9756 149.821C33.3804 144.477 33.5781 137.834 35.9512 130.429L39.9853 131.716C37.876 138.267 37.6782 144.057 39.0361 148.613C40.0513 151.974 41.9365 154.665 44.5601 156.464C44.6128 155.834 44.6919 155.191 44.7842 154.56C45.7861 147.681 48.4624 141.274 52.2856 135.589C56.3857 129.51 61.791 124.272 67.8555 120.215C68.8838 119.532 69.9517 118.862 71.0459 118.219C71.8501 117.746 72.6411 117.313 73.4058 116.906C70.8218 112.455 69.3584 107.296 69.3584 101.781C69.4111 85.0155 83.0298 71.4531 99.8389 71.4531ZM158.677 145.212C160.576 145.212 162.29 145.974 163.529 147.208C164.768 148.442 165.533 150.149 165.533 152.04C165.533 153.93 164.768 155.637 163.529 156.871C162.29 158.105 160.576 158.867 158.677 158.867C156.792 158.867 155.078 158.105 153.839 156.871C152.6 155.637 151.835 153.93 151.835 152.053C151.835 150.162 152.6 148.455 153.839 147.221C155.065 145.987 156.779 145.212 158.677 145.212ZM160.523 150.215C160.048 149.742 159.402 149.453 158.677 149.453C157.952 149.453 157.306 149.742 156.832 150.215C156.357 150.687 156.067 151.331 156.067 152.053C156.067 152.775 156.357 153.431 156.818 153.891L156.832 153.904C157.293 154.363 157.952 154.652 158.677 154.652C159.402 154.652 160.048 154.363 160.523 153.891C160.998 153.418 161.288 152.775 161.288 152.053C161.288 151.331 160.998 150.674 160.523 150.215ZM77.585 129.261H87.0508C82.6475 127.226 78.811 124.166 75.8579 120.398C74.9351 120.884 74.0649 121.357 73.2476 121.829C72.2456 122.407 71.2568 123.037 70.2813 123.694C64.6519 127.449 59.6421 132.293 55.8716 137.913C52.3911 143.086 49.9521 148.915 49.0425 155.138C48.6733 157.724 48.6602 160.337 48.9634 162.937C49.293 165.707 49.9653 168.451 50.9145 171.103C52.167 174.569 53.894 177.904 55.9639 180.976C58.1128 184.166 60.644 187.094 63.373 189.589C64.2168 190.35 65.0737 191.086 65.957 191.794C66.8667 192.517 67.7896 193.226 68.752 193.895L68.8311 193.948C70.3472 195.116 71.3096 196.495 71.626 198.136C71.9424 199.738 71.6128 201.444 70.5449 203.282L65.5747 214.101C65.377 214.534 65.2847 214.731 65.1792 214.928H65.166C64.7837 215.716 64.4014 216.49 64.6387 216.91C64.6519 216.937 64.6914 216.963 64.731 216.989C64.876 217.068 65.1001 217.121 65.4033 217.134L79.3779 217.226C81.0127 216.792 81.7905 215.151 82.5815 213.444C82.7661 213.064 82.9375 212.683 82.9902 212.578L83.0298 212.499C83.3066 211.987 83.5967 211.383 83.8604 210.819C85.6006 207.169 86.6816 204.884 92.667 205.803L92.9702 205.882C102.331 208.718 110.386 209.86 117.874 209.611C125.323 209.361 132.257 207.72 139.376 204.95C144.215 203.072 146.482 208.101 148.302 212.158C148.671 212.985 149.014 213.746 149.356 214.35C150.055 215.309 150.767 216.005 151.492 216.412C152.151 216.779 152.85 216.937 153.602 216.871L153.773 216.858H165.019L165.19 216.871C166.337 216.963 167.022 216.937 167.194 216.766C167.194 216.766 167.075 216.503 166.864 215.952C166.521 215.204 165.427 212.762 164.03 209.545C163.199 207.641 162.382 205.738 161.789 204.28C161.301 203.099 161.261 202.98 161.222 202.902C160.167 200.355 159.626 199.042 159.877 197.571C160.167 195.878 161.195 195.037 163.305 193.304L163.99 192.74C164.992 191.913 166.297 190.744 167.668 189.444C169.119 188.092 170.595 186.622 171.887 185.309C173.509 183.641 174.3 182.565 174.788 181.882C175.381 181.055 175.71 180.608 176.515 180.215C177.398 179.768 178.11 179.808 179.679 179.86C180.364 179.886 181.3 179.926 182.909 179.926H185.928C187.154 179.821 188.077 179.493 188.696 178.98C189.29 178.495 189.672 177.759 189.856 176.801L189.975 176.42C190.938 173.991 191.623 170.25 191.768 166.508C191.9 163.226 191.623 160.022 190.779 157.856C190.371 156.819 190.001 156.832 189.355 156.884C188.92 156.91 188.433 156.95 187.945 156.95H185.176V156.937C183.331 156.976 181.894 156.083 180.813 154.377C180.021 153.116 179.441 151.37 179.072 149.204C178.598 147.97 178.136 146.84 177.675 145.816C177.174 144.674 176.673 143.611 176.185 142.652C174.471 139.265 172.744 136.495 170.635 134.092C168.565 131.716 166.113 129.707 162.975 127.79C162 127.199 161.05 126.595 160.233 125.939C159.231 125.138 158.466 124.272 158.15 123.287C156.792 119.046 160.47 116.512 164.491 113.755C166.746 112.206 169.132 110.578 170.2 108.779C170.516 108.254 170.661 107.768 170.701 107.335C170.74 106.862 170.648 106.468 170.503 106.18C170.318 105.812 166.561 106.849 162.052 106.954C157.24 107.059 152.31 107.348 151.163 107.729C149.356 108.333 147.392 109.554 145.546 110.696C143.397 112.035 141.407 113.269 139.495 113.65C138.717 113.808 137.913 113.86 137.122 113.808C136.384 113.755 135.632 113.611 134.868 113.374C133.734 113.191 132.574 113.033 131.414 112.875C130.398 112.744 129.357 112.626 128.315 112.508C125.481 119.9 119.838 125.913 112.667 129.221H125.165V134.867H77.585V129.261ZM112.917 91.8295L104.466 93.1555C104.044 92.0921 103.662 91.3568 103.319 90.9498C102.977 90.5428 102.423 90.1227 101.632 89.7026V96.2277C106.22 97.4488 109.292 98.7354 110.834 100.088C112.864 101.913 113.893 104.223 113.893 107.033C113.893 108.674 113.523 110.184 112.798 111.549C112.06 112.928 111.124 114.057 109.99 114.989C108.856 115.908 107.63 116.565 106.352 116.985C105.073 117.405 103.491 117.641 101.632 117.72V121.974H98.3359V117.72C96.1079 117.523 94.3149 117.169 92.9307 116.657C91.5464 116.145 90.3467 115.422 89.3447 114.503C88.3428 113.598 87.5649 112.613 87.0244 111.549C86.4839 110.499 86.0752 109.212 85.7983 107.716L94.9478 106.665C95.2246 108.149 95.5938 109.212 96.0552 109.869C96.5166 110.525 97.2813 111.116 98.3359 111.615V103.633C95.2642 102.792 93.1021 102.057 91.8232 101.44C90.5444 100.823 89.437 99.8251 88.501 98.4597C87.5649 97.0943 87.0903 95.44 87.0903 93.4838C87.0903 90.8054 88.0396 88.5603 89.9116 86.7617C91.7969 84.963 94.605 83.952 98.3228 83.7682V81.5494H101.619V83.7682C105.007 83.9783 107.604 84.766 109.397 86.1577C111.203 87.5363 112.376 89.4269 112.917 91.8295ZM98.3359 89.5975C97.3604 89.9126 96.688 90.3065 96.3057 90.766C95.9233 91.2256 95.7388 91.777 95.7388 92.4203C95.7388 93.0768 95.9365 93.6544 96.3189 94.1402C96.7012 94.6391 97.3735 95.0461 98.3359 95.3744V89.5975ZM101.632 111.838C102.911 111.549 103.86 111.077 104.453 110.42C105.046 109.764 105.35 109.029 105.35 108.215C105.35 107.506 105.099 106.849 104.585 106.245C104.084 105.654 103.095 105.09 101.632 104.591V111.838Z" fill="white"/>
<path fill-rule="evenodd" clip-rule="evenodd" d="M21.3923 125.966V119.959C17.0442 121.792 12.9748 121.832 9.59293 120.57C6.95432 119.593 4.72451 117.841 3.08931 115.581C1.45412 113.321 0.41354 110.572 0.0976501 107.538C-0.385476 102.834 0.896665 97.5198 4.55727 92.531C4.74309 92.2867 4.94749 92.0423 5.18905 91.8387L111.217 1.1246C112.592 -0.260033 114.71 -0.402569 116.234 0.900619L222.503 91.4315C222.67 91.574 222.819 91.7165 222.967 91.8998C227.891 97.7031 229.118 104.138 227.929 109.574C227.334 112.262 226.163 114.665 224.547 116.66C222.93 118.656 220.867 120.203 218.526 121.12C214.81 122.586 210.387 122.545 205.909 120.224V125.966H195.503V115.215C195.503 113.158 122.607 50.0145 114.561 43.1524C106.032 50.2589 31.7981 112.893 31.7981 115.54V125.986H21.3923V125.966ZM174.246 7.2333L206.151 8.65866V55.8789L174.246 32.8084V7.2333Z" fill="white"/>
</svg> -->

<!-- <svg width="70" height="70" viewBox="0 0 70 70" fill="none" xmlns="http://www.w3.org/2000/svg">
<path fill-rule="evenodd" clip-rule="evenodd" d="M32.9464 21C38.5494 21 43.089 25.6112 43.089 31.3027C43.089 32.0839 43.0011 32.8427 42.8429 33.5748C43.1109 33.606 43.379 33.6373 43.6427 33.673C44.0645 33.731 44.4864 33.7891 44.8995 33.856L45.0094 33.8828C45.1676 33.9364 45.317 33.9676 45.4532 33.9765C45.6026 33.9855 45.7433 33.9765 45.8751 33.9498C46.253 33.8739 46.8155 33.5168 47.422 33.1329C48.0987 32.7043 48.8238 32.249 49.5929 31.9856C50.1114 31.8071 51.922 31.6866 53.6446 31.6509C55.6046 31.6062 57.5514 31.7758 57.7491 32.1776C57.9029 32.4856 57.9996 32.8829 57.9645 33.3248C57.9381 33.6775 57.8282 34.0569 57.6041 34.4408C57.0899 35.3202 56.1627 35.9719 55.2838 36.5835C54.3917 37.2039 53.5743 37.7753 53.7105 38.2039C53.7193 38.2396 53.8072 38.3154 53.9391 38.4226C54.1324 38.5788 54.4137 38.7618 54.7081 38.9449C55.8902 39.6769 56.8131 40.4537 57.5953 41.3688C58.3687 42.2749 59.0103 43.3105 59.6388 44.5828C59.8233 44.9533 59.9991 45.3327 60.1661 45.7255C60.3463 46.1451 60.5177 46.5692 60.6803 46.9977L60.7154 47.1361C60.8121 47.7209 60.9395 48.1673 61.1109 48.4396C61.1944 48.5735 61.2735 48.6404 61.3482 48.6404L61.3702 48.636H62.2931C62.4425 48.636 62.5611 48.627 62.6666 48.6226C63.5455 48.5601 64.0377 48.5288 64.5519 49.868C64.9078 50.7965 65.0265 52.091 64.9737 53.3811C64.9166 54.7694 64.6661 56.1844 64.3014 57.1531C64.1695 57.7914 63.8839 58.3003 63.44 58.6753C62.9962 59.0458 62.4161 59.269 61.691 59.327L61.6339 59.3315H60.6056C60.1573 59.3315 59.7662 59.3136 59.4762 59.3047C59.1993 59.2958 59.1422 59.2556 59.107 59.2734C59.0543 59.3002 59.1202 59.3047 59.0455 59.4029C58.8609 59.6618 58.5665 60.0725 57.9469 60.7242C57.503 61.1884 56.9889 61.7018 56.4967 62.175C56.0396 62.6124 55.5826 63.0276 55.2047 63.349L54.9718 63.5454C54.5455 63.9025 54.339 64.0766 54.3302 64.1302C54.3126 64.2328 54.44 64.5453 54.6905 65.1568C54.796 65.4158 54.8619 65.572 54.8839 65.63C55.1344 66.255 55.3849 66.8621 55.6134 67.3933C55.9957 68.2905 56.4176 69.2369 56.5538 69.5493L56.567 69.5806C56.879 70.3841 56.8087 70.9956 56.3736 71.4331C56.0045 71.8036 55.42 71.9464 54.629 71.8839H50.9244C50.4059 71.9196 49.9137 71.8081 49.4522 71.5402C49.0128 71.2858 48.6129 70.9019 48.2525 70.3885L48.2174 70.3305C48.0812 70.0895 47.9405 69.7725 47.7911 69.4333C47.4264 68.6119 46.9781 67.5897 46.6134 67.737C44.0997 68.7324 41.6432 69.3261 38.9845 69.4154C36.3565 69.5047 33.544 69.1029 30.2965 68.103C29.3648 67.9691 29.1759 68.3709 28.877 69.0047C28.7936 69.1833 28.7057 69.3752 28.5826 69.6118C28.5079 69.7681 28.4815 69.8305 28.4508 69.8886C28.0201 70.8215 27.607 71.7232 26.3194 71.9866L26.1788 72L21.3932 71.9643H21.3448C21.0504 71.942 20.7911 71.875 20.5626 71.75C20.2989 71.6116 20.0968 71.4108 19.9518 71.1429C19.5255 70.3528 19.8111 69.7547 20.1012 69.152H20.0968C20.1451 69.0494 20.1978 68.9422 20.211 68.9154L20.2154 68.911L21.8985 65.1702L21.9293 65.1077C22.1051 64.7997 22.171 64.5453 22.1314 64.3489C22.0919 64.1569 21.9513 63.9695 21.7184 63.7864C21.3844 63.5454 21.0592 63.2954 20.7472 63.041C20.422 62.7776 20.1143 62.5053 19.8155 62.2285C18.8268 61.309 17.9127 60.2287 17.1305 59.0413C16.379 57.903 15.7462 56.6621 15.2892 55.3675C14.9332 54.3542 14.6827 53.3141 14.5597 52.2696C14.5333 52.0285 14.5113 51.783 14.4981 51.542C12.9469 50.7831 11.8526 49.4305 11.3253 47.645C10.7935 45.8282 10.8595 43.5695 11.6505 41.0518L12.9952 41.4893C12.2921 43.7168 12.2262 45.6853 12.6788 47.2343C13.0172 48.3771 13.6456 49.2922 14.5201 49.9037C14.5377 49.6895 14.5641 49.4707 14.5948 49.2565C14.9288 46.9174 15.8209 44.739 17.0953 42.8061C18.462 40.7393 20.2638 38.9583 22.2852 37.5789C22.628 37.3468 22.984 37.1191 23.3487 36.9004C23.6168 36.7397 23.8805 36.5924 24.1353 36.454C23.274 34.9407 22.7862 33.1864 22.7862 31.3116C22.8038 25.6112 27.3434 21 32.9464 21ZM52.5592 46.0782C53.192 46.0782 53.7633 46.3371 54.1764 46.7567C54.5895 47.1763 54.8443 47.7566 54.8443 48.3994C54.8443 49.0422 54.5895 49.6225 54.1764 50.0421C53.7633 50.4617 53.192 50.7206 52.5592 50.7206C51.9308 50.7206 51.3595 50.4617 50.9464 50.0421C50.5333 49.6225 50.2784 49.0422 50.2784 48.4039C50.2784 47.761 50.5333 47.1807 50.9464 46.7611C51.3551 46.3415 51.9264 46.0782 52.5592 46.0782ZM53.1744 47.7789C53.0162 47.6182 52.8009 47.52 52.5592 47.52C52.3175 47.52 52.1021 47.6182 51.9439 47.7789C51.7857 47.9396 51.6891 48.1583 51.6891 48.4039C51.6891 48.6494 51.7857 48.8726 51.9395 49.0288L51.9439 49.0333C52.0977 49.1895 52.3175 49.2877 52.5592 49.2877C52.8009 49.2877 53.0162 49.1895 53.1744 49.0288C53.3326 48.8681 53.4293 48.6494 53.4293 48.4039C53.4293 48.1583 53.3326 47.9351 53.1744 47.7789ZM25.5284 40.6545H28.6837C27.2159 39.9626 25.9371 38.9225 24.9527 37.6414C24.6451 37.8066 24.3551 37.9673 24.0826 38.128C23.7486 38.3244 23.419 38.5386 23.0938 38.7618C21.2174 40.0385 19.5475 41.6857 18.2906 43.5962C17.1305 45.355 16.3175 47.337 16.0143 49.4529C15.8912 50.3323 15.8868 51.2206 15.9879 52.1044C16.0977 53.0463 16.3219 53.9793 16.6383 54.881C17.0558 56.0594 17.6314 57.1933 18.3214 58.2378C19.0377 59.3225 19.8814 60.318 20.7911 61.1661C21.0724 61.425 21.358 61.675 21.6524 61.9161C21.9557 62.1616 22.2633 62.4026 22.5841 62.6303L22.6104 62.6481C23.1158 63.0454 23.4366 63.5141 23.5421 64.0721C23.6476 64.6167 23.5377 65.197 23.1817 65.822L21.525 69.5002C21.4591 69.6475 21.4283 69.7145 21.3932 69.7814H21.3888C21.2613 70.0493 21.1339 70.3126 21.213 70.4555C21.2174 70.4644 21.2306 70.4733 21.2437 70.4823C21.2921 70.5091 21.3668 70.5269 21.4679 70.5314L26.1261 70.5626C26.671 70.4153 26.9303 69.8573 27.1939 69.277C27.2555 69.1476 27.3126 69.0181 27.3302 68.9824L27.3434 68.9556C27.4356 68.7815 27.5323 68.5762 27.6202 68.3842C28.2003 67.1433 28.5606 66.3666 30.5558 66.679L30.6568 66.7058C33.7769 67.67 36.462 68.0584 38.9581 67.9736C41.441 67.8888 43.7525 67.3308 46.1256 66.3889C47.7384 65.7505 48.4942 67.4602 49.1007 68.8396C49.2237 69.1208 49.338 69.3797 49.4522 69.585C49.6852 69.9109 49.9225 70.1475 50.1642 70.2859C50.3839 70.4109 50.6168 70.4644 50.8673 70.4421L50.9244 70.4376H54.6729L54.7301 70.4421C55.1124 70.4734 55.3409 70.4644 55.398 70.4064C55.398 70.4064 55.3585 70.3171 55.2882 70.1296C55.1739 69.8752 54.8092 69.0449 54.3434 67.9512C54.0665 67.304 53.794 66.6567 53.5963 66.1612C53.4337 65.7595 53.4205 65.7193 53.4073 65.6925C53.0558 64.8265 52.8756 64.3801 52.9591 63.8802C53.0558 63.3043 53.3985 63.0186 54.1017 62.4294L54.3302 62.2375C54.6642 61.9562 55.0992 61.559 55.5562 61.117C56.0396 60.6572 56.5318 60.1573 56.9625 59.7109C57.503 59.144 57.7667 58.7779 57.9293 58.5458C58.127 58.2646 58.2369 58.1128 58.505 57.9789C58.7994 57.8271 59.0367 57.8405 59.5597 57.8584C59.7882 57.8673 60.1002 57.8807 60.6363 57.8807H61.6427C62.0514 57.845 62.359 57.7334 62.5655 57.5593C62.7633 57.3941 62.8907 57.1442 62.9522 56.8183L62.9918 56.6888C63.3126 55.863 63.5411 54.5908 63.5895 53.3186C63.6334 52.2026 63.5411 51.1134 63.2599 50.3769C63.1236 50.0242 63.0006 50.0287 62.7852 50.0466C62.6402 50.0555 62.4776 50.0689 62.315 50.0689H61.3922V50.0644C60.777 50.0778 60.2979 49.7743 59.9376 49.194C59.6739 48.7654 59.4806 48.1717 59.3575 47.4352C59.1993 47.0156 59.0455 46.6317 58.8917 46.2835C58.7247 45.8951 58.5577 45.5336 58.3951 45.2077C57.8238 44.056 57.2481 43.1141 56.545 42.2972C55.8551 41.4893 55.0377 40.8063 53.9918 40.1546C53.6666 39.9537 53.3502 39.7484 53.0777 39.5252C52.7437 39.2529 52.4889 38.9583 52.3834 38.6235C51.9308 37.1816 53.1568 36.3201 54.4972 35.3827C55.2486 34.8559 56.044 34.3024 56.4 33.6909C56.5055 33.5123 56.5538 33.3471 56.567 33.1998C56.5802 33.0391 56.5494 32.9052 56.5011 32.807C56.4395 32.682 55.1871 33.0347 53.6842 33.0704C52.0802 33.1061 50.4366 33.2043 50.0543 33.3337C49.4522 33.5391 48.7975 33.9542 48.1822 34.3426C47.4659 34.7979 46.8023 35.2175 46.1651 35.347C45.9059 35.4005 45.6378 35.4184 45.3741 35.4005C45.128 35.3827 44.8775 35.3336 44.6227 35.2532C44.2447 35.1907 43.858 35.1372 43.4713 35.0836C43.1329 35.0389 42.7857 34.9988 42.4386 34.9586C41.4937 37.4718 39.6129 39.5162 37.2223 40.6411H41.3883V42.5606H25.5284V40.6545ZM37.3058 27.928L34.4889 28.3788C34.3482 28.0172 34.2208 27.7673 34.1065 27.6289C33.9923 27.4905 33.8077 27.3477 33.544 27.2048V29.4234C35.0733 29.8385 36.0973 30.276 36.6114 30.7358C37.2882 31.3562 37.631 32.1419 37.631 33.0972C37.631 33.6551 37.5079 34.1685 37.2662 34.6327C37.0201 35.1014 36.7081 35.4853 36.3302 35.8023C35.9522 36.1147 35.5436 36.3379 35.1173 36.4808C34.691 36.6236 34.1637 36.704 33.544 36.7308V38.1771H32.4454V36.7308C31.7027 36.6638 31.1051 36.5433 30.6436 36.3692C30.1822 36.1951 29.7823 35.9496 29.4483 35.6371C29.1143 35.3291 28.8551 34.9943 28.6749 34.6327C28.4947 34.2756 28.3585 33.8382 28.2662 33.3293L31.316 32.9722C31.4083 33.4766 31.5313 33.8382 31.6852 34.0614C31.839 34.2846 32.0938 34.4854 32.4454 34.6551V31.941C31.4215 31.6553 30.7008 31.4053 30.2745 31.1955C29.8482 30.9857 29.4791 30.6465 29.1671 30.1822C28.8551 29.718 28.6969 29.1555 28.6969 28.4904C28.6969 27.5798 29.0133 26.8165 29.6373 26.2049C30.2657 25.5933 31.2018 25.2496 32.441 25.1871V24.4327H33.5396V25.1871C34.669 25.2586 35.5348 25.5264 36.1324 25.9996C36.7345 26.4683 37.1256 27.1111 37.3058 27.928ZM32.4454 27.1691C32.1202 27.2762 31.8961 27.4102 31.7686 27.5664C31.6412 27.7226 31.5797 27.9101 31.5797 28.1288C31.5797 28.352 31.6456 28.5484 31.773 28.7136C31.9005 28.8832 32.1246 29.0216 32.4454 29.1332V27.1691ZM33.544 34.7309C33.9703 34.6327 34.2867 34.472 34.4845 34.2488C34.6822 34.0256 34.7833 33.7757 34.7833 33.4989C34.7833 33.2579 34.6998 33.0347 34.5284 32.8293C34.3614 32.6284 34.0318 32.4365 33.544 32.2669V34.7309Z" fill="#FDFFFF" />
<path fill-rule="evenodd" clip-rule="evenodd" d="M7.21586 42.4896V40.4635C5.74919 41.0816 4.37654 41.0954 3.2358 40.6695C2.34576 40.3398 1.59363 39.7491 1.04206 38.9868C0.490489 38.2244 0.139491 37.2971 0.0329384 36.2737C-0.130025 34.6871 0.302455 32.8945 1.53722 31.2117C1.59989 31.1293 1.66884 31.0469 1.75032 30.9782L37.5145 0.379341C37.9783 -0.0877117 38.6929 -0.135791 39.2068 0.303788L75.0525 30.8408C75.1089 30.8889 75.1591 30.937 75.2092 30.9988C76.8702 32.9563 77.2839 35.1267 76.8827 36.9606C76.6821 37.8672 76.2873 38.6777 75.742 39.3508C75.1967 40.0239 74.5009 40.5459 73.7112 40.855C72.4576 41.3495 70.9659 41.3358 69.4553 40.5528V42.4896H65.9454V38.8631C65.9454 38.1694 41.3567 16.8704 38.6427 14.5558C35.7658 16.9528 10.7258 38.0801 10.7258 38.973V42.4965H7.21586V42.4896ZM58.775 2.43987L69.5368 2.92066V18.8485L58.775 11.0666V2.43987Z" fill="#FDFFFF" />
</svg> -->

<svg width="90" height="90" viewBox="0 0 90 90" fill="none" xmlns="http://www.w3.org/2000/svg">
<path fill-rule="evenodd" clip-rule="evenodd" d="M37.1976 31C43.6307 31 48.8428 36.1537 48.8428 42.5147C48.8428 43.3878 48.7419 44.236 48.5602 45.0542C48.868 45.0891 49.1758 45.124 49.4785 45.1639C49.9629 45.2288 50.4473 45.2937 50.9215 45.3685L51.0477 45.3984C51.2293 45.4583 51.4009 45.4932 51.5573 45.5032C51.7288 45.5132 51.8903 45.5032 52.0417 45.4733C52.4756 45.3884 53.1214 44.9893 53.8177 44.5603C54.5947 44.0813 55.4272 43.5724 56.3102 43.2781C56.9056 43.0785 58.9844 42.9438 60.9622 42.9039C63.2126 42.854 65.4478 43.0436 65.6748 43.4926C65.8514 43.8368 65.9624 44.2809 65.922 44.7748C65.8918 45.1689 65.7656 45.593 65.5083 46.0221C64.918 47.0049 63.8533 47.7333 62.8442 48.4168C61.82 49.1103 60.8815 49.7489 61.0379 50.2278C61.048 50.2677 61.1489 50.3526 61.3003 50.4723C61.5223 50.6469 61.8452 50.8515 62.1833 51.056C63.5405 51.8742 64.6001 52.7423 65.4982 53.7651C66.3862 54.7779 67.1229 55.9353 67.8444 57.3572C68.0563 57.7713 68.2581 58.1954 68.4499 58.6344C68.6567 59.1034 68.8535 59.5773 69.0402 60.0563L69.0806 60.2109C69.1916 60.8645 69.3379 61.3634 69.5347 61.6677C69.6305 61.8174 69.7214 61.8923 69.8071 61.8923L69.8324 61.8873H70.8919C71.0635 61.8873 71.1997 61.8773 71.3208 61.8723C72.3299 61.8025 72.895 61.7675 73.4854 63.2642C73.894 64.302 74.0303 65.7488 73.9697 67.1906C73.9041 68.7422 73.6165 70.3238 73.1978 71.4064C73.0464 72.1198 72.7184 72.6886 72.2088 73.1077C71.6992 73.5218 71.0332 73.7712 70.2007 73.8361L70.1351 73.841H68.9544C68.4398 73.841 67.9907 73.8211 67.6577 73.8111C67.3398 73.8011 67.2743 73.7562 67.2339 73.7762C67.1733 73.8061 67.249 73.8111 67.1632 73.9209C66.9513 74.2102 66.6133 74.6692 65.9019 75.3976C65.3923 75.9165 64.8019 76.4902 64.2368 77.0191C63.7121 77.508 63.1873 77.972 62.7534 78.3312L62.486 78.5507C61.9966 78.9498 61.7594 79.1444 61.7493 79.2043C61.7292 79.319 61.8755 79.6683 62.1631 80.3518C62.2842 80.6411 62.3599 80.8158 62.3851 80.8806C62.6727 81.5791 62.9603 82.2576 63.2227 82.8513C63.6616 83.8541 64.146 84.9118 64.3024 85.261L64.3175 85.2959C64.6758 86.194 64.5951 86.8775 64.0955 87.3664C63.6717 87.7805 63.0006 87.9401 62.0924 87.8703H57.839C57.2436 87.9102 56.6785 87.7855 56.1488 87.4861C55.6442 87.2018 55.1851 86.7727 54.7713 86.1989L54.731 86.1341C54.5745 85.8647 54.4131 85.5105 54.2415 85.1313C53.8228 84.2133 53.3081 83.0708 52.8893 83.2354C50.0033 84.348 47.1828 85.0116 44.1302 85.1113C41.113 85.2111 37.8838 84.7621 34.1551 83.6446C33.0854 83.4949 32.8685 83.9439 32.5254 84.6523C32.4295 84.8519 32.3286 85.0664 32.1873 85.3309C32.1016 85.5055 32.0713 85.5753 32.036 85.6402C31.5415 86.6829 31.0672 87.6907 29.5889 87.985L29.4274 88L23.9328 87.9601H23.8773C23.5392 87.9351 23.2415 87.8603 22.9792 87.7206C22.6764 87.566 22.4443 87.3414 22.2778 87.0421C21.7884 86.159 22.1164 85.4905 22.4494 84.817H22.4443C22.4998 84.7022 22.5604 84.5825 22.5755 84.5526L22.5806 84.5476L24.513 80.3667L24.5483 80.2969C24.7502 79.9526 24.8258 79.6683 24.7804 79.4488C24.735 79.2342 24.5736 79.0247 24.3061 78.8201C23.9227 78.5507 23.5493 78.2713 23.1911 77.987C22.8177 77.6926 22.4645 77.3883 22.1214 77.0789C20.9862 76.0512 19.9367 74.8438 19.0386 73.5168C18.1758 72.2446 17.4492 70.8576 16.9245 69.4108C16.5158 68.2782 16.2282 67.1158 16.0869 65.9484C16.0566 65.679 16.0314 65.4045 16.0163 65.1351C14.2352 64.287 12.9788 62.7753 12.3734 60.7797C11.7629 58.7491 11.8385 56.2247 12.7467 53.4109L14.2907 53.8998C13.4834 56.3893 13.4077 58.5895 13.9274 60.3207C14.3159 61.5979 15.0374 62.6207 16.0415 63.3042C16.0617 63.0647 16.092 62.8202 16.1273 62.5807C16.5107 59.9665 17.535 57.5318 18.9982 55.3716C20.5674 53.0616 22.6361 51.071 24.957 49.5294C25.3506 49.2699 25.7593 49.0155 26.1781 48.771C26.4858 48.5914 26.7886 48.4268 27.0812 48.2721C26.0923 46.5808 25.5322 44.6201 25.5322 42.5247C25.5524 36.1537 30.7645 31 37.1976 31ZM59.716 59.0285C60.4425 59.0285 61.0985 59.3179 61.5728 59.7869C62.047 60.2558 62.3397 60.9044 62.3397 61.6228C62.3397 62.3413 62.047 62.9898 61.5728 63.4588C61.0985 63.9278 60.4425 64.2172 59.716 64.2172C58.9945 64.2172 58.3385 63.9278 57.8643 63.4588C57.39 62.9898 57.0973 62.3413 57.0973 61.6278C57.0973 60.9094 57.39 60.2608 57.8643 59.7919C58.3335 59.3229 58.9894 59.0285 59.716 59.0285ZM60.4224 60.9294C60.2407 60.7498 59.9935 60.64 59.716 60.64C59.4385 60.64 59.1912 60.7498 59.0096 60.9294C58.828 61.109 58.717 61.3534 58.717 61.6278C58.717 61.9022 58.828 62.1517 59.0046 62.3263L59.0096 62.3313C59.1862 62.5059 59.4385 62.6157 59.716 62.6157C59.9935 62.6157 60.2407 62.5059 60.4224 62.3263C60.604 62.1467 60.715 61.9022 60.715 61.6278C60.715 61.3534 60.604 61.104 60.4224 60.9294ZM28.6807 52.9668H32.3034C30.6182 52.1935 29.1499 51.0311 28.0197 49.5992C27.6665 49.7838 27.3335 49.9634 27.0207 50.143C26.6372 50.3625 26.2588 50.602 25.8854 50.8515C23.731 52.2783 21.8136 54.1193 20.3706 56.2546C19.0386 58.2203 18.1051 60.4354 17.757 62.8003C17.6157 63.7831 17.6107 64.7759 17.7267 65.7638C17.8529 66.8165 18.1102 67.8592 18.4735 68.867C18.9528 70.1841 19.6138 71.4513 20.4059 72.6187C21.2283 73.8311 22.1971 74.9436 23.2415 75.8916C23.5644 76.1809 23.8924 76.4603 24.2305 76.7297C24.5786 77.0041 24.9318 77.2735 25.3001 77.528L25.3304 77.5479C25.9106 77.9919 26.279 78.5158 26.4001 79.1394C26.5212 79.7481 26.395 80.3967 25.9863 81.0951L24.0841 85.2061C24.0085 85.3708 23.9731 85.4456 23.9328 85.5204H23.9277C23.7814 85.8198 23.6351 86.1141 23.7259 86.2738C23.731 86.2838 23.7461 86.2937 23.7612 86.3037C23.8167 86.3337 23.9025 86.3536 24.0185 86.3586L29.3669 86.3935C29.9925 86.2289 30.2902 85.6053 30.5929 84.9567C30.6636 84.812 30.7292 84.6673 30.7493 84.6274L30.7645 84.5975C30.8704 84.4029 30.9814 84.1734 31.0824 83.9589C31.7484 82.5719 32.1621 81.7038 34.4528 82.053L34.5688 82.083C38.1512 83.1606 41.234 83.5947 44.0999 83.4999C46.9507 83.4051 49.6047 82.7814 52.3293 81.7288C54.181 81.0153 55.0488 82.9261 55.7451 84.4677C55.8864 84.7821 56.0176 85.0714 56.1488 85.3009C56.4162 85.6651 56.6886 85.9295 56.9661 86.0842C57.2184 86.2239 57.4858 86.2838 57.7734 86.2588L57.839 86.2538H62.1429L62.2085 86.2588C62.6475 86.2937 62.9098 86.2838 62.9754 86.2189C62.9754 86.2189 62.93 86.1191 62.8493 85.9096C62.7181 85.6252 62.2993 84.6972 61.7645 83.4749C61.4466 82.7515 61.1338 82.0281 60.9067 81.4743C60.7201 81.0253 60.7049 80.9804 60.6898 80.9505C60.2861 79.9826 60.0793 79.4837 60.1751 78.9249C60.2861 78.2813 60.6797 77.962 61.487 77.3035L61.7493 77.0889C62.1328 76.7746 62.6323 76.3306 63.1571 75.8367C63.7121 75.3228 64.2772 74.764 64.7716 74.2651C65.3923 73.6315 65.695 73.2224 65.8817 72.963C66.1087 72.6487 66.2349 72.479 66.5426 72.3294C66.8807 72.1597 67.1532 72.1747 67.7536 72.1947C68.0159 72.2046 68.3742 72.2196 68.9897 72.2196H70.1452C70.6144 72.1797 70.9676 72.055 71.2048 71.8604C71.4318 71.6758 71.5781 71.3964 71.6488 71.0322L71.6942 70.8875C72.0625 69.9646 72.3249 68.5427 72.3804 67.1208C72.4308 65.8735 72.3249 64.6562 72.0019 63.833C71.8455 63.4389 71.7043 63.4439 71.457 63.4638C71.2905 63.4738 71.1038 63.4888 70.9172 63.4888H69.8576V63.4838C69.1512 63.4987 68.6012 63.1595 68.1875 62.5109C67.8848 62.0319 67.6628 61.3684 67.5215 60.5452C67.3398 60.0762 67.1632 59.6472 66.9867 59.258C66.7949 58.824 66.6032 58.4199 66.4165 58.0557C65.7606 56.7685 65.0996 55.7158 64.2923 54.8028C63.5002 53.8998 62.5617 53.1365 61.3608 52.4081C60.9875 52.1835 60.6242 51.954 60.3114 51.7046C59.9279 51.4003 59.6353 51.071 59.5142 50.6968C58.9945 49.0853 60.4022 48.1225 61.9411 47.0747C62.8039 46.486 63.7171 45.8674 64.1258 45.1839C64.2469 44.9843 64.3024 44.7997 64.3175 44.6351C64.3327 44.4555 64.2974 44.3058 64.2419 44.1961C64.1712 44.0564 62.7332 44.4505 61.0076 44.4904C59.166 44.5303 57.279 44.6401 56.84 44.7848C56.1488 45.0143 55.397 45.4782 54.6906 45.9123C53.8682 46.4212 53.1063 46.8902 52.3747 47.0348C52.077 47.0947 51.7692 47.1147 51.4665 47.0947C51.1839 47.0747 50.8963 47.0199 50.6037 46.9301C50.1698 46.8602 49.7257 46.8003 49.2817 46.7405C48.8932 46.6906 48.4946 46.6457 48.096 46.6008C47.0112 49.4096 44.8517 51.6946 42.1069 52.9519H46.8901V55.0972H28.6807V52.9668ZM42.2028 38.743L38.9686 39.2469C38.8071 38.8428 38.6608 38.5634 38.5296 38.4088C38.3984 38.2541 38.1865 38.0944 37.8838 37.9348V40.4144C39.6396 40.8783 40.8153 41.3673 41.4056 41.8811C42.1826 42.5746 42.5762 43.4527 42.5762 44.5204C42.5762 45.144 42.4349 45.7177 42.1574 46.2366C41.8748 46.7604 41.5166 47.1895 41.0827 47.5437C40.6488 47.893 40.1795 48.1424 39.6901 48.3021C39.2007 48.4617 38.5952 48.5515 37.8838 48.5814V50.1979H36.6224V48.5814C35.7697 48.5066 35.0835 48.3719 34.5537 48.1773C34.0239 47.9828 33.5648 47.7084 33.1813 47.3591C32.7978 47.0149 32.5002 46.6407 32.2933 46.2366C32.0864 45.8375 31.93 45.3485 31.8241 44.7798L35.3257 44.3807C35.4316 44.9444 35.5729 45.3485 35.7495 45.598C35.9261 45.8474 36.2187 46.0719 36.6224 46.2615V43.2282C35.4468 42.9089 34.6193 42.6295 34.1299 42.395C33.6405 42.1605 33.2166 41.7814 32.8584 41.2625C32.5002 40.7436 32.3185 40.115 32.3185 39.3716C32.3185 38.3539 32.6818 37.5007 33.3983 36.8172C34.1198 36.1337 35.1945 35.7496 36.6173 35.6797V34.8366H37.8787V35.6797C39.1755 35.7596 40.1694 36.0589 40.8556 36.5877C41.5469 37.1116 41.9959 37.83 42.2028 38.743ZM36.6224 37.8949C36.249 38.0146 35.9917 38.1643 35.8454 38.3389C35.6991 38.5135 35.6284 38.7231 35.6284 38.9675C35.6284 39.217 35.7041 39.4365 35.8504 39.6211C35.9967 39.8107 36.2541 39.9653 36.6224 40.0901V37.8949ZM37.8838 46.3463C38.3732 46.2366 38.7365 46.057 38.9635 45.8075C39.1906 45.5581 39.3066 45.2787 39.3066 44.9694C39.3066 44.7 39.2108 44.4505 39.014 44.221C38.8223 43.9965 38.4438 43.782 37.8838 43.5924V46.3463Z" fill="white"/>
<path fill-rule="evenodd" clip-rule="evenodd" d="M8.15035 47.9922V45.7037C6.49374 46.4019 4.94332 46.4174 3.65485 45.9364C2.64955 45.564 1.80001 44.8968 1.17701 44.0357C0.55401 43.1746 0.157556 42.1273 0.0372041 40.9713C-0.146864 39.1793 0.341624 37.1544 1.73629 35.2537C1.80709 35.1606 1.88496 35.0676 1.977 34.99L42.3728 0.428467C42.8967 -0.0990708 43.7038 -0.153376 44.2843 0.34313L84.7721 34.8348C84.8358 34.8891 84.8925 34.9434 84.9491 35.0133C86.8252 37.2243 87.2924 39.6758 86.8394 41.7471C86.6128 42.7712 86.1668 43.6866 85.5509 44.4469C84.935 45.2071 84.1491 45.7968 83.2571 46.1459C81.8412 46.7044 80.1563 46.6889 78.4501 45.8045V47.9922H74.4856V43.8961C74.4856 43.1125 46.7126 19.0552 43.6471 16.4408C40.3976 19.1483 12.1149 43.0117 12.1149 44.0202V48H8.15035V47.9922ZM66.3866 2.75584L78.5421 3.2989V21.2895L66.3866 12.4998V2.75584Z" fill="white"/>
</svg>
