<svg width="120" height="120" viewBox="0 0 100 100" fill="none" xmlns="http://www.w3.org/2000/svg">
<path fill-rule="evenodd" clip-rule="evenodd" d="M45.8874 33C53.7731 33 60.1621 39.3291 60.1621 47.1409C60.1621 48.2131 60.0384 49.2547 59.8158 50.2595C60.193 50.3024 60.5703 50.3453 60.9414 50.3943C61.5352 50.474 62.1289 50.5536 62.7103 50.6455L62.8649 50.6823C63.0876 50.7558 63.2979 50.7987 63.4896 50.8109C63.6999 50.8232 63.8978 50.8109 64.0833 50.7742C64.6152 50.67 65.4069 50.1799 66.2604 49.653C67.2129 49.0648 68.2334 48.4398 69.3158 48.0783C70.0456 47.8333 72.5938 47.6678 75.0182 47.6188C77.7767 47.5575 80.5166 47.7904 80.7949 48.3418C81.0114 48.7646 81.1475 49.3098 81.098 49.9164C81.0609 50.4004 80.9063 50.9212 80.5908 51.4481C79.8672 52.6551 78.5622 53.5497 77.3252 54.3891C76.0697 55.2407 74.9193 56.0249 75.111 56.6131C75.1234 56.6621 75.2471 56.7663 75.4326 56.9133C75.7048 57.1278 76.1006 57.379 76.515 57.6302C78.1787 58.635 79.4775 59.7011 80.5785 60.9571C81.667 62.2009 82.57 63.6223 83.4544 65.3685C83.7142 65.877 83.9616 66.3978 84.1966 66.937C84.4502 67.5129 84.6914 68.095 84.9203 68.6832L84.9697 68.8731C85.1058 69.6757 85.2852 70.2884 85.5264 70.6621C85.6439 70.846 85.7552 70.9379 85.8604 70.9379L85.8913 70.9317H87.1901C87.4004 70.9317 87.5674 70.9195 87.7158 70.9133C88.9528 70.8276 89.6455 70.7847 90.3691 72.6228C90.8701 73.8972 91.0371 75.674 90.9629 77.4446C90.8825 79.3501 90.53 81.2923 90.0166 82.6219C89.8311 83.498 89.429 84.1965 88.8044 84.7112C88.1797 85.2197 87.3633 85.526 86.3428 85.6057L86.2624 85.6118H84.8151C84.1843 85.6118 83.6338 85.5873 83.2256 85.5751C82.8359 85.5628 82.7555 85.5077 82.7061 85.5322C82.6319 85.5689 82.7246 85.5751 82.6195 85.7098C82.3597 86.0652 81.9453 86.6289 81.0733 87.5234C80.4486 88.1606 79.7249 88.8652 79.0322 89.5147C78.389 90.1151 77.7458 90.6849 77.2139 91.126L76.8861 91.3956C76.2861 91.8858 75.9955 92.1247 75.9831 92.1982C75.9583 92.3392 76.1377 92.7681 76.4902 93.6074C76.6387 93.9628 76.7315 94.1772 76.7624 94.2569C77.1149 95.1147 77.4675 95.9479 77.7891 96.677C78.3272 97.9085 78.9209 99.2074 79.1126 99.6363L79.1312 99.6792C79.5703 100.782 79.4714 101.621 78.8591 102.222C78.3395 102.73 77.5169 102.926 76.4037 102.841H71.1898C70.46 102.89 69.7673 102.737 69.1179 102.369C68.4994 102.02 67.9365 101.493 67.4294 100.788L67.3799 100.709C67.1882 100.378 66.9902 99.9427 66.78 99.477C66.2666 98.3497 65.6358 96.9466 65.1224 97.1488C61.5846 98.5151 58.1273 99.33 54.3854 99.4525C50.6869 99.5751 46.7285 99.0236 42.1579 97.6512C40.8467 97.4674 40.5807 98.0188 40.1602 98.8888C40.0427 99.1339 39.919 99.3974 39.7458 99.7221C39.6406 99.9365 39.6035 100.022 39.5602 100.102C38.9541 101.382 38.3727 102.62 36.5606 102.982L36.3626 103L29.6273 102.951H29.5593C29.1449 102.92 28.78 102.828 28.4583 102.657C28.0873 102.467 27.8027 102.191 27.5986 101.824C26.9987 100.739 27.4007 99.9182 27.8089 99.091H27.8027C27.8708 98.9501 27.945 98.8031 27.9636 98.7663L27.9697 98.7602L30.3386 93.6258L30.3818 93.54C30.6292 93.1173 30.722 92.7681 30.6664 92.4985C30.6107 92.235 30.4128 91.9777 30.085 91.7265C29.6149 91.3956 29.1572 91.0525 28.7181 90.7033C28.2604 90.3418 27.8275 89.9681 27.4069 89.5882C26.0153 88.326 24.7289 86.8433 23.6279 85.2136C22.5703 83.6512 21.6797 81.9479 21.0365 80.1711C20.5355 78.7803 20.183 77.3527 20.0098 75.919C19.9727 75.5882 19.9417 75.2512 19.9232 74.9203C17.7399 73.8788 16.1999 72.0223 15.4577 69.5716C14.7093 67.0779 14.8021 63.9777 15.9154 60.5221L17.808 61.1225C16.8184 64.1799 16.7256 66.8818 17.3626 69.0079C17.8389 70.5764 18.7233 71.8324 19.9541 72.6718C19.9789 72.3777 20.016 72.0775 20.0593 71.7834C20.5293 68.5729 21.7848 65.5829 23.5785 62.93C25.502 60.0932 28.0378 57.6486 30.8828 55.7554C31.3652 55.4368 31.8662 55.1243 32.3796 54.8241C32.7568 54.6035 33.1279 54.4013 33.4867 54.2114C32.2744 52.1344 31.5879 49.7265 31.5879 47.1532C31.6126 39.3291 38.0016 33 45.8874 33ZM73.4906 67.421C74.3812 67.421 75.1852 67.7764 75.7666 68.3523C76.348 68.9282 76.7067 69.7247 76.7067 70.607C76.7067 71.4893 76.348 72.2858 75.7666 72.8617C75.1852 73.4376 74.3812 73.793 73.4906 73.793C72.6061 73.793 71.8021 73.4376 71.2207 72.8617C70.6393 72.2858 70.2806 71.4893 70.2806 70.6131C70.2806 69.7309 70.6393 68.9344 71.2207 68.3584C71.7959 67.7825 72.5999 67.421 73.4906 67.421ZM74.3565 69.7554C74.1338 69.5348 73.8307 69.4 73.4906 69.4C73.1504 69.4 72.8473 69.5348 72.6247 69.7554C72.402 69.9759 72.266 70.2761 72.266 70.6131C72.266 70.9501 72.402 71.2565 72.6185 71.4709L72.6247 71.477C72.8412 71.6915 73.1504 71.8263 73.4906 71.8263C73.8307 71.8263 74.1338 71.6915 74.3565 71.4709C74.5791 71.2503 74.7152 70.9501 74.7152 70.6131C74.7152 70.2761 74.5791 69.9698 74.3565 69.7554ZM35.4473 59.9768H39.888C37.8223 59.0271 36.0225 57.5996 34.6371 55.8411C34.2041 56.0678 33.7959 56.2884 33.4124 56.509C32.9424 56.7786 32.4785 57.0726 32.0208 57.379C29.3799 59.1313 27.0296 61.3921 25.2608 64.0144C23.6279 66.4284 22.4837 69.1488 22.057 72.053C21.8838 73.26 21.8776 74.4792 22.0199 75.6923C22.1745 76.9851 22.4899 78.2656 22.9352 79.5033C23.5228 81.1208 24.333 82.677 25.304 84.1107C26.3122 85.5996 27.4997 86.9659 28.78 88.13C29.1758 88.4853 29.5778 88.8284 29.9922 89.1593C30.419 89.4963 30.8519 89.8271 31.3034 90.1396L31.3405 90.1641C32.0518 90.7094 32.5033 91.3527 32.6517 92.1186C32.8001 92.8661 32.6455 93.6626 32.1445 94.5204L29.8128 99.5689C29.7201 99.7711 29.6768 99.863 29.6273 99.9549H29.6211C29.4417 100.323 29.2624 100.684 29.3737 100.88C29.3799 100.892 29.3984 100.905 29.417 100.917C29.485 100.954 29.5902 100.978 29.7324 100.984L36.2884 101.027C37.0553 100.825 37.4203 100.059 37.7914 99.2626C37.8779 99.0849 37.9583 98.9072 37.9831 98.8582L38.0016 98.8214C38.1315 98.5825 38.2676 98.3007 38.3913 98.0372C39.2077 96.3339 39.7149 95.2678 42.5228 95.6967L42.6651 95.7335C47.0563 97.0569 50.8353 97.5899 54.3483 97.4735C57.8428 97.3571 61.096 96.5912 64.4359 95.2985C66.7057 94.4223 67.7695 96.7689 68.6231 98.6621C68.7962 99.0481 68.957 99.4035 69.1179 99.6853C69.4456 100.133 69.7796 100.457 70.1198 100.647C70.4291 100.819 70.7568 100.892 71.1094 100.862L71.1898 100.856H76.4655L76.5459 100.862C77.084 100.905 77.4056 100.892 77.486 100.813C77.486 100.813 77.4303 100.69 77.3314 100.433C77.1706 100.084 76.6572 98.944 76.0016 97.4429C75.612 96.5545 75.2285 95.6661 74.9502 94.986C74.7214 94.4346 74.7028 94.3794 74.6843 94.3427C74.1895 93.154 73.9359 92.5414 74.0534 91.8551C74.1895 91.0648 74.6719 90.6726 75.6615 89.8639L75.9831 89.6004C76.4531 89.2144 77.0654 88.6691 77.7087 88.0626C78.389 87.4315 79.0817 86.7453 79.6878 86.1326C80.4486 85.3545 80.8197 84.8521 81.0485 84.5335C81.3268 84.1475 81.4815 83.9392 81.8587 83.7554C82.2731 83.547 82.6071 83.5654 83.3431 83.5899C83.6647 83.6022 84.1039 83.6206 84.8584 83.6206H86.2747C86.8499 83.5716 87.2829 83.4184 87.5736 83.1794C87.8519 82.9527 88.0313 82.6096 88.1179 82.1624L88.1735 81.9847C88.625 80.8512 88.9466 79.105 89.0147 77.3589C89.0765 75.8271 88.9466 74.3322 88.5508 73.3212C88.3591 72.8372 88.1859 72.8433 87.8828 72.8678C87.6787 72.8801 87.4499 72.8985 87.221 72.8985H85.9222V72.8923C85.0563 72.9107 84.3822 72.4941 83.875 71.6976C83.5039 71.1094 83.2318 70.2945 83.0586 69.2836C82.836 68.7077 82.6195 68.1807 82.403 67.7028C82.168 67.1698 81.933 66.6735 81.7041 66.2263C80.9001 64.6455 80.0899 63.3527 79.1003 62.2315C78.1292 61.1225 76.9789 60.1851 75.5068 59.2906C75.0492 59.0149 74.6039 58.733 74.2204 58.4267C73.7503 58.053 73.3916 57.6486 73.2432 57.1891C72.6061 55.2101 74.3317 54.0276 76.2181 52.7409C77.2757 52.0179 78.3952 51.2582 78.8962 50.4188C79.0446 50.1737 79.1126 49.947 79.1312 49.7449C79.1497 49.5243 79.1065 49.3405 79.0384 49.2057C78.9518 49.0341 77.1891 49.5182 75.0739 49.5672C72.8164 49.6162 70.5033 49.751 69.9652 49.9287C69.1179 50.2105 68.1963 50.7803 67.3304 51.3133C66.3223 51.9383 65.3884 52.5142 64.4915 52.6919C64.1266 52.7654 63.7494 52.7899 63.3783 52.7654C63.0319 52.7409 62.6794 52.6735 62.3207 52.5632C61.7887 52.4775 61.2445 52.4039 60.7002 52.3304C60.224 52.2691 59.7354 52.214 59.2468 52.1589C57.917 55.6083 55.2699 58.4144 51.9053 59.9584H57.7686V62.593H35.4473V59.9768ZM52.0228 42.509L48.0583 43.1278C47.8604 42.6315 47.681 42.2884 47.5202 42.0985C47.3594 41.9085 47.0996 41.7125 46.7285 41.5164V44.5615C48.8809 45.1313 50.322 45.7317 51.0456 46.3628C51.9981 47.2144 52.4805 48.2928 52.4805 49.6039C52.4805 50.3698 52.3073 51.0744 51.9671 51.7116C51.6208 52.3549 51.1817 52.8818 50.6497 53.3168C50.1179 53.7457 49.5427 54.0521 48.9427 54.2481C48.3428 54.4442 47.6006 54.5545 46.7285 54.5912V56.5764H45.1823V54.5912C44.1371 54.4993 43.2959 54.3339 42.6465 54.095C41.9971 53.856 41.4343 53.519 40.9642 53.0902C40.4942 52.6674 40.1292 52.2079 39.8757 51.7116C39.6221 51.2214 39.4304 50.621 39.3005 49.9225L43.5928 49.4324C43.7227 50.1247 43.8958 50.621 44.1123 50.9274C44.3288 51.2337 44.6875 51.5094 45.1823 51.7422V48.0171C43.7412 47.6249 42.7269 47.2818 42.127 46.9939C41.527 46.7059 41.0075 46.2403 40.5684 45.6031C40.1292 44.9659 39.9066 44.1939 39.9066 43.281C39.9066 42.0311 40.3519 40.9834 41.2302 40.144C42.1146 39.3046 43.432 38.8328 45.1761 38.747V37.7116H46.7223V38.747C48.3119 38.8451 49.5303 39.2127 50.3714 39.8621C51.2188 40.5055 51.7692 41.3877 52.0228 42.509ZM45.1823 41.4674C44.7246 41.6144 44.4092 41.7982 44.2298 42.0127C44.0505 42.2271 43.9639 42.4845 43.9639 42.7847C43.9639 43.091 44.0567 43.3606 44.236 43.5873C44.4154 43.8201 44.7308 44.0101 45.1823 44.1632V41.4674ZM46.7285 51.8464C47.3285 51.7116 47.7738 51.491 48.0521 51.1847C48.3304 50.8783 48.4727 50.5352 48.4727 50.1554C48.4727 49.8245 48.3552 49.5182 48.1139 49.2363C47.8789 48.9606 47.4151 48.6972 46.7285 48.4643V51.8464Z" fill="#5075BF"/>
<path fill-rule="evenodd" clip-rule="evenodd" d="M9.93233 58.4852V55.6962C7.91352 56.5471 6.02412 56.566 4.45393 55.9798C3.22884 55.526 2.19356 54.713 1.43435 53.6636C0.675138 52.6142 0.192004 51.3379 0.0453383 49.9292C-0.178974 47.7453 0.416316 45.2778 2.11591 42.9616C2.20219 42.8481 2.29709 42.7347 2.40924 42.6401L51.6371 0.522147C52.2755 -0.120731 53.2591 -0.18691 53.9665 0.418152L103.307 42.451C103.384 42.5172 103.453 42.5834 103.522 42.6685C105.808 45.3629 106.378 48.3504 105.826 50.8746C105.55 52.1226 105.006 53.2382 104.256 54.1647C103.505 55.0912 102.547 55.8097 101.46 56.2351C99.7348 56.9158 97.6815 56.8969 95.6023 55.8191V58.4852H90.7709V53.4934C90.7709 52.5386 56.9257 23.2214 53.19 20.0354C49.2301 23.3349 14.7637 52.4156 14.7637 53.6447V58.4946H9.93233V58.4852ZM80.9012 3.35837L95.7144 4.02016V25.9442L80.9012 15.2327V3.35837Z" fill="#5075BF"/>
</svg>
