<svg width="45" height="45" viewBox="0 0 45 45" fill="none" xmlns="http://www.w3.org/2000/svg">
<path d="M47 22.5C47 34.9264 36.4787 45 23.5 45C10.5213 45 0 34.9264 0 22.5C0 10.0736 10.5213 0 23.5 0C36.4787 0 47 10.0736 47 22.5Z" fill="#1C418C"/>
<path d="M14 23L15.4102 13.2031C15.5091 12.5156 16.182 12 16.9836 12H25.3258C26.068 12 26.6667 12.5199 26.6667 13.1645C26.6667 13.302 26.637 13.4438 26.5826 13.5727L24.2917 18.875H31.1841C32.1836 18.875 33 19.5797 33 20.452C33 20.7699 32.8911 21.0793 32.6833 21.3414L23.1734 33.4156C22.8815 33.7852 22.4016 34.0043 21.8919 34.0043H21.7484C20.9716 34.0043 20.3383 33.4543 20.3383 32.7797C20.3383 32.6809 20.3531 32.582 20.3828 32.4832L22.7083 24.375H15.5833C14.7076 24.375 14 23.7605 14 23Z" fill="#D9D9D9"/>
</svg>
