<svg width="47" height="45" viewBox="0 0 47 45" fill="none" xmlns="http://www.w3.org/2000/svg">
<path fill-rule="evenodd" clip-rule="evenodd" d="M4.80404 34.9529C7.45467 34.9529 9.60807 37.2007 9.60807 39.9764C9.60807 42.7482 7.4585 45 4.80404 45C2.14958 44.996 0 42.7482 0 39.9764C0 37.2007 2.14958 34.9529 4.80404 34.9529ZM13.4138 35.2929H46.453C46.7552 35.2929 47 35.5488 47 35.8648V43.8361C47 44.1521 46.7552 44.4081 46.453 44.4081H13.4138C13.1117 44.4081 12.8669 44.1521 12.8669 43.8361V35.8648C12.8669 35.5488 13.1155 35.2929 13.4138 35.2929ZM13.4138 17.8784H46.453C46.7552 17.8784 47 18.1344 47 18.4504V26.4216C47 26.7376 46.7552 26.9936 46.453 26.9936H13.4138C13.1117 26.9936 12.8669 26.7376 12.8669 26.4216V18.4504C12.8669 18.1344 13.1155 17.8784 13.4138 17.8784ZM13.4138 0.463959H46.453C46.7552 0.463959 47 0.719936 47 1.03591V9.0072C47 9.32317 46.7552 9.57915 46.453 9.57915H13.4138C13.1117 9.57915 12.8669 9.32317 12.8669 9.0072V1.03591C12.8669 0.719936 13.1155 0.463959 13.4138 0.463959ZM4.80404 17.4744C7.45467 17.4744 9.60807 19.7222 9.60807 22.498C9.60807 25.2698 7.4585 27.5216 4.80404 27.5216C2.14958 27.5216 0 25.2738 0 22.498C0 19.7262 2.14958 17.4744 4.80404 17.4744ZM4.80404 0C7.45467 0 9.60807 2.2478 9.60807 5.02355C9.60807 7.79531 7.4585 10.0471 4.80404 10.0471C2.14958 10.0431 0 7.79531 0 5.02355C0 2.2478 2.14958 0 4.80404 0Z" fill="white"/>
</svg>
