<svg width="45" height="45" viewBox="0 0 45 45" fill="none" xmlns="http://www.w3.org/2000/svg">
<path fill-rule="evenodd" clip-rule="evenodd" d="M3.06641 23.3019C4.7583 23.3019 6.13281 24.8005 6.13281 26.651C6.13281 28.4988 4.76074 30 3.06641 30C1.37207 29.9973 0 28.4988 0 26.651C0 24.8005 1.37207 23.3019 3.06641 23.3019ZM8.56201 23.5286H29.6509C29.8438 23.5286 30 23.6992 30 23.9099V29.2241C30 29.4347 29.8438 29.6054 29.6509 29.6054H8.56201C8.36914 29.6054 8.21289 29.4347 8.21289 29.2241V23.9099C8.21289 23.6992 8.37158 23.5286 8.56201 23.5286ZM8.56201 11.9189H29.6509C29.8438 11.9189 30 12.0896 30 12.3002V17.6144C30 17.8251 29.8438 17.9957 29.6509 17.9957H8.56201C8.36914 17.9957 8.21289 17.8251 8.21289 17.6144V12.3002C8.21289 12.0896 8.37158 11.9189 8.56201 11.9189ZM8.56201 0.309306H29.6509C29.8438 0.309306 30 0.479957 30 0.690605V6.0048C30 6.21545 29.8438 6.3861 29.6509 6.3861H8.56201C8.36914 6.3861 8.21289 6.21545 8.21289 6.0048V0.690605C8.21289 0.479957 8.37158 0.309306 8.56201 0.309306ZM3.06641 11.6496C4.7583 11.6496 6.13281 13.1482 6.13281 14.9987C6.13281 16.8465 4.76074 18.3477 3.06641 18.3477C1.37207 18.3477 0 16.8492 0 14.9987C0 13.1508 1.37207 11.6496 3.06641 11.6496ZM3.06641 0C4.7583 0 6.13281 1.49853 6.13281 3.34904C6.13281 5.19687 4.76074 6.69807 3.06641 6.69807C1.37207 6.69541 0 5.19687 0 3.34904C0 1.49853 1.37207 0 3.06641 0Z" fill="#1C418C"/>
</svg>
