<svg width="30" height="30" viewBox="0 0 30 30" fill="none" xmlns="http://www.w3.org/2000/svg">
<path d="M19 7.2666C19 6.14772 18.4732 5.07466 17.5355 4.28349C16.5979 3.49233 15.3261 3.04785 14 3.04785C12.6739 3.04785 11.4021 3.49233 10.4645 4.28349C9.52678 5.07466 9 6.14772 9 7.2666C9 8.38548 9.52678 9.45854 10.4645 10.2497C11.4021 11.0409 12.6739 11.4854 14 11.4854C15.3261 11.4854 16.5979 11.0409 17.5355 10.2497C18.4732 9.45854 19 8.38548 19 7.2666ZM6 7.2666C6 5.47639 6.84285 3.7595 8.34315 2.49363C9.84344 1.22776 11.8783 0.516602 14 0.516602C16.1217 0.516602 18.1566 1.22776 19.6569 2.49363C21.1571 3.7595 22 5.47639 22 7.2666C22 9.05681 21.1571 10.7737 19.6569 12.0396C18.1566 13.3054 16.1217 14.0166 14 14.0166C11.8783 14.0166 9.84344 13.3054 8.34315 12.0396C6.84285 10.7737 6 9.05681 6 7.2666ZM3.08125 24.9854H24.9188C24.3625 21.6473 20.9625 19.0791 16.8563 19.0791H11.1438C7.0375 19.0791 3.6375 21.6473 3.08125 24.9854ZM0 25.9504C0 20.7561 4.9875 16.5479 11.1438 16.5479H16.8563C23.0125 16.5479 28 20.7561 28 25.9504C28 26.8152 27.1687 27.5166 26.1437 27.5166H1.85625C0.83125 27.5166 0 26.8152 0 25.9504Z" fill="#1C418C"/>
</svg>